#N canvas 0 23 450 300 10;
#X obj 96 45 bng 15 250 50 0 empty empty empty 17 7 0 10 -262144 -1
-1;
#X obj 112 94 f 0;
#X obj 115 144 + 1;
#X obj 188 120 +;
#X obj 138 200 print;
#X connect 0 0 1 0;
#X connect 1 0 2 0;
#X connect 2 0 3 0;
#X connect 2 0 3 1;
#X connect 2 0 4 0;
#X connect 3 0 2 1;
