#N canvas 271 102 650 412 10;
#X obj 139 323 dac~;
#X obj 29 36 hsl 128 15 100 2000 0 0 empty empty empty -2 -8 0 10 -262144
-1 -1 200 1;
#X obj 148 286 *~;
#X obj 437 68 vsl 15 128 0 10 0 0 empty empty empty 0 -9 0 10 -262144
-1 -1 0 1;
#X obj 29 133 osc~ 440;
#X obj 440 252 osc~ 440;
#X obj 95 136 osc~ 440;
#X obj 163 137 osc~ 440, f 9;
#X obj 236 134 osc~ 440, f 9;
#X obj 236 108 *~ 5;
#X obj 251 267 +~ 2;
#X obj 13 236 noise~;
#X obj 394 36 vsl 15 128 0 1 0 0 empty empty empty 0 -9 0 10 -262144
-1 -1 1500 1;
#X obj 41 269 *~ 0.001;
#X obj 77 66 +~;
#X obj 281 47 osc~;
#X obj 213 187 *~ 0.01;
#X obj 158 188 *~ 0.02;
#X obj 96 184 *~ 0.1;
#X obj 38 190 *~ 0.8;
#X obj 214 56 *~ 10;
#X obj 166 108 *~ 3.001;
#X obj 95 110 *~ 2.1;
#X connect 1 0 14 0;
#X connect 2 0 0 1;
#X connect 2 0 0 0;
#X connect 3 0 5 0;
#X connect 4 0 19 0;
#X connect 5 0 10 0;
#X connect 6 0 18 0;
#X connect 7 0 17 0;
#X connect 8 0 16 0;
#X connect 9 0 8 0;
#X connect 10 0 2 1;
#X connect 11 0 13 0;
#X connect 12 0 15 0;
#X connect 13 0 2 0;
#X connect 14 0 9 0;
#X connect 14 0 4 0;
#X connect 14 0 21 0;
#X connect 14 0 22 0;
#X connect 15 0 20 0;
#X connect 16 0 2 0;
#X connect 17 0 2 0;
#X connect 18 0 2 0;
#X connect 19 0 2 0;
#X connect 20 0 14 1;
#X connect 21 0 7 0;
#X connect 22 0 6 0;
