#N canvas 0 23 450 300 10;
#N canvas 546 83 529 355 synth 1;
#X obj 148 286 *~;
#X obj 437 68 vsl 15 128 0 10 0 0 empty empty empty 0 -9 0 10 -262144
-1 -1 0 1;
#X obj 29 133 osc~ 440;
#X obj 440 252 osc~ 440;
#X obj 95 136 osc~ 440;
#X obj 163 137 osc~ 440, f 9;
#X obj 236 134 osc~ 440, f 9;
#X obj 236 108 *~ 5;
#X obj 251 267 +~ 2;
#X obj 13 236 noise~;
#X obj 394 36 vsl 15 128 0 1 0 0 empty empty empty 0 -9 0 10 -262144
-1 -1 0 1;
#X obj 41 269 *~ 0.001;
#X obj 77 66 +~;
#X obj 281 47 osc~;
#X obj 213 187 *~ 0.01;
#X obj 158 188 *~ 0.02;
#X obj 96 184 *~ 0.1;
#X obj 38 190 *~ 0.8;
#X obj 214 56 *~ 10;
#X obj 166 108 *~ 3.001;
#X obj 95 110 *~ 2.1;
#X obj 69 26 inlet;
#X obj 149 322 outlet~;
#X connect 0 0 22 0;
#X connect 1 0 3 0;
#X connect 2 0 17 0;
#X connect 3 0 8 0;
#X connect 4 0 16 0;
#X connect 5 0 15 0;
#X connect 6 0 14 0;
#X connect 7 0 6 0;
#X connect 8 0 0 1;
#X connect 9 0 11 0;
#X connect 10 0 13 0;
#X connect 11 0 0 0;
#X connect 12 0 7 0;
#X connect 12 0 2 0;
#X connect 12 0 19 0;
#X connect 12 0 20 0;
#X connect 13 0 18 0;
#X connect 14 0 0 0;
#X connect 15 0 0 0;
#X connect 16 0 0 0;
#X connect 17 0 0 0;
#X connect 18 0 12 1;
#X connect 19 0 5 0;
#X connect 20 0 4 0;
#X connect 21 0 12 0;
#X restore 63 186 pd synth;
#X obj 183 243 dac~;
#X obj 8 9 table notes;
#X obj 85 109 tabread notes;
#X obj 307 23 bng 15 250 50 0 empty empty empty 17 7 0 10 -262144 -1
-1;
#X obj 63 157 mtof;
#X msg 85 5 \; notes 0 69 71 73 75 77 79 81;
#X obj 118 83 random 7;
#N canvas 269 91 450 300 kick 1;
#X obj 144 52 bng 15 250 50 0 empty empty empty 17 7 0 10 -262144 -1
-1;
#X obj 34 227 noise~;
#X obj 168 276 vline~;
#X msg 213 233 1 \$2 \, \$4 \$3 \$2;
#X msg 152 218 0 \$2;
#X obj 241 8 vsl 15 128 0 300 0 0 empty empty empty 0 -9 0 10 -262144
-1 -1 300 1;
#X obj 262 8 vsl 15 128 0 500 0 0 empty empty empty 0 -9 0 10 -262144
-1 -1 3400 1;
#X obj 282 9 vsl 15 128 0 1 0 0 empty empty empty 0 -9 0 10 -262144
-1 -1 2900 1;
#X obj 320 9 vsl 15 128 0 1000 0 0 empty empty empty 0 -9 0 10 -262144
-1 -1 800 1;
#X floatatom 214 161 5 0 0 0 - - -;
#X floatatom 251 162 5 0 0 0 - - -;
#X floatatom 287 162 5 0 0 0 - - -;
#X floatatom 330 162 5 0 0 0 - - -;
#X obj 215 199 pack f f f f;
#X obj 135 159 pack f f;
#X obj 200 312 *~;
#X floatatom 97 127 5 0 0 0 - - -;
#X obj 94 85 delay 100;
#X obj 103 319 +~;
#X floatatom 58 54 5 0 0 0 - - -;
#X obj 93 262 osc~;
#X obj 93 225 *~;
#X obj 42 299 *~ 0.2;
#X obj 22 262 lop~ 50;
#X obj 128 253 +~ 0.7;
#X obj 152 11 inlet;
#X obj 186 371 outlet~;
#X connect 0 0 13 0;
#X connect 0 0 17 0;
#X connect 0 0 19 0;
#X connect 1 0 23 0;
#X connect 2 0 15 1;
#X connect 2 0 24 0;
#X connect 3 0 2 0;
#X connect 4 0 2 0;
#X connect 5 0 9 0;
#X connect 6 0 10 0;
#X connect 7 0 11 0;
#X connect 8 0 12 0;
#X connect 9 0 13 1;
#X connect 9 0 17 1;
#X connect 10 0 13 2;
#X connect 11 0 13 3;
#X connect 12 0 14 1;
#X connect 13 0 3 0;
#X connect 14 0 4 0;
#X connect 15 0 26 0;
#X connect 16 0 14 0;
#X connect 17 0 16 0;
#X connect 18 0 15 0;
#X connect 19 0 21 0;
#X connect 20 0 18 1;
#X connect 21 0 20 0;
#X connect 22 0 18 0;
#X connect 23 0 22 0;
#X connect 24 0 21 1;
#X connect 25 0 0 0;
#X restore 320 173 pd kick;
#X floatatom 85 130 5 0 0 0 - - -;
#X obj 344 108 bng 15 250 50 0 empty empty empty 17 7 0 10 -262144
-1 -1;
#X obj 306 60 metro 300;
#X connect 0 0 1 1;
#X connect 0 0 1 0;
#X connect 3 0 9 0;
#X connect 3 0 5 0;
#X connect 4 0 11 0;
#X connect 5 0 0 0;
#X connect 7 0 3 0;
#X connect 8 0 1 0;
#X connect 8 0 1 1;
#X connect 11 0 7 0;
#X connect 11 0 8 0;
#X connect 11 0 10 0;
