#N canvas 317 134 931 444 10;
#N canvas 0 0 1280 718 adsrirrsinn 0;
#X obj 789 -40 inlet;
#X obj 788 40 pack;
#X obj 62 366 -~;
#X obj 61 344 sig~ 1;
#X obj 30 381 *~;
#N canvas 539 98 596 517 env 0;
#X obj 162 -121 >;
#X obj 273 70 r \$0-r;
#X obj 108 34 r \$0-d;
#X obj 89 12 r \$0-a;
#X obj 85 151 vline~;
#X obj 74 50 f;
#X obj 244 87 f;
#X obj 269 161 line~;
#X obj 162 -26 sel 1 0;
#X msg 157 241 0;
#X obj 84 250 *~;
#X obj 125 258 sig~;
#X msg 125 225 1;
#X obj 163 -3 t b b;
#X obj 256 289 *~;
#X obj 188 220 samphold~;
#X msg 100 129 0 \$1;
#X obj 84 305 +~;
#X obj 244 112 t f f;
#X obj 244 4 t b b;
#X obj 84 194 tabread4~ \$0-ad-shape;
#X obj 270 215 tabread4~ \$0-r-shape;
#X obj 84 172 +~ 1;
#X obj 270 187 +~ 1;
#X obj 472 350 outlet~;
#X obj 460 -181 inlet;
#X obj 85 72 pack;
#X obj 473 323 *~;
#X obj 487 270 sig~;
#X obj 479 -17 sel 0;
#X obj 460 -161 t f f f;
#X obj 591 -50 switch~;
#X obj 527 -123 sel 1 0;
#X msg 527 -91 1;
#X msg 591 -73 0;
#X obj 606 -120 r \$0-r;
#X obj 591 -94 del;
#X obj 527 -144 >;
#X msg 85 100 0 \, 1024 \$1 \, 2048 \$2 \$1;
#X msg 269 139 0 \, 1024 \$1;
#X connect 0 0 8 0;
#X connect 1 0 6 1;
#X connect 2 0 26 1;
#X connect 3 0 5 1;
#X connect 4 0 22 0;
#X connect 5 0 26 0;
#X connect 6 0 18 0;
#X connect 7 0 15 1;
#X connect 7 0 23 0;
#X connect 8 0 13 0;
#X connect 8 1 19 0;
#X connect 9 0 11 0;
#X connect 10 0 17 0;
#X connect 11 0 10 1;
#X connect 12 0 11 0;
#X connect 13 0 5 0;
#X connect 13 1 12 0;
#X connect 14 0 17 1;
#X connect 15 0 14 0;
#X connect 16 0 4 0;
#X connect 17 0 27 0;
#X connect 18 0 16 0;
#X connect 18 1 39 0;
#X connect 19 0 6 0;
#X connect 19 1 9 0;
#X connect 20 0 10 0;
#X connect 20 0 15 0;
#X connect 21 0 14 1;
#X connect 22 0 20 0;
#X connect 23 0 21 0;
#X connect 25 0 30 0;
#X connect 26 0 38 0;
#X connect 27 0 24 0;
#X connect 28 0 27 1;
#X connect 29 1 28 0;
#X connect 30 0 0 0;
#X connect 30 1 29 0;
#X connect 30 2 37 0;
#X connect 32 0 33 0;
#X connect 32 1 36 0;
#X connect 33 0 31 0;
#X connect 34 0 31 0;
#X connect 35 0 36 1;
#X connect 36 0 34 0;
#X connect 37 0 32 0;
#X connect 38 0 4 0;
#X connect 39 0 7 0;
#X restore 31 236 pd env;
#X obj 77 322 *~;
#X obj 180 356 -~;
#X obj 179 334 sig~ 1;
#X obj 148 371 *~;
#X obj 194 313 *~;
#X obj 132 427 *~;
#X obj 117 471 -~;
#X obj 116 449 sig~ 1;
#X obj 85 487 *~;
#X obj 302 542 *~;
#X obj 287 586 -~;
#X obj 286 564 sig~ 1;
#X obj 255 602 *~;
#X obj 490 618 *~;
#X obj 475 662 -~;
#X obj 474 640 sig~ 1;
#X obj 443 678 *~;
#X obj 788 16 poly 32;
#X obj 788 -18 t b f;
#X obj 787 62 route 1 2 3 4 5 6 7 8 9 10 11 12 13 14 15 16 17 18 19
20 21 22 23 24 25 26 27 28 29 30 31 32;
#X obj 883 712 *~;
#X obj 868 756 -~;
#X obj 867 734 sig~ 1;
#X obj 836 772 *~;
#X obj 836 821 outlet~;
#X msg 759 -1 0;
#N canvas 539 98 596 517 env 0;
#X obj 162 -121 >;
#X obj 273 70 r \$0-r;
#X obj 108 34 r \$0-d;
#X obj 89 12 r \$0-a;
#X obj 85 151 vline~;
#X obj 74 50 f;
#X obj 244 87 f;
#X obj 269 161 line~;
#X obj 162 -26 sel 1 0;
#X msg 157 241 0;
#X obj 84 250 *~;
#X obj 125 258 sig~;
#X msg 125 225 1;
#X obj 163 -3 t b b;
#X obj 256 289 *~;
#X obj 188 220 samphold~;
#X msg 100 129 0 \$1;
#X obj 84 305 +~;
#X obj 244 112 t f f;
#X obj 244 4 t b b;
#X obj 84 194 tabread4~ \$0-ad-shape;
#X obj 270 215 tabread4~ \$0-r-shape;
#X obj 84 172 +~ 1;
#X obj 270 187 +~ 1;
#X obj 472 350 outlet~;
#X obj 460 -181 inlet;
#X obj 85 72 pack;
#X obj 473 323 *~;
#X obj 487 270 sig~;
#X obj 479 -17 sel 0;
#X obj 460 -161 t f f f;
#X obj 591 -50 switch~;
#X obj 527 -123 sel 1 0;
#X msg 527 -91 1;
#X msg 591 -73 0;
#X obj 606 -120 r \$0-r;
#X obj 591 -94 del;
#X obj 527 -144 >;
#X msg 85 100 0 \, 1024 \$1 \, 2048 \$2 \$1;
#X msg 269 139 0 \, 1024 \$1;
#X connect 0 0 8 0;
#X connect 1 0 6 1;
#X connect 2 0 26 1;
#X connect 3 0 5 1;
#X connect 4 0 22 0;
#X connect 5 0 26 0;
#X connect 6 0 18 0;
#X connect 7 0 15 1;
#X connect 7 0 23 0;
#X connect 8 0 13 0;
#X connect 8 1 19 0;
#X connect 9 0 11 0;
#X connect 10 0 17 0;
#X connect 11 0 10 1;
#X connect 12 0 11 0;
#X connect 13 0 5 0;
#X connect 13 1 12 0;
#X connect 14 0 17 1;
#X connect 15 0 14 0;
#X connect 16 0 4 0;
#X connect 17 0 27 0;
#X connect 18 0 16 0;
#X connect 18 1 39 0;
#X connect 19 0 6 0;
#X connect 19 1 9 0;
#X connect 20 0 10 0;
#X connect 20 0 15 0;
#X connect 21 0 14 1;
#X connect 22 0 20 0;
#X connect 23 0 21 0;
#X connect 25 0 30 0;
#X connect 26 0 38 0;
#X connect 27 0 24 0;
#X connect 28 0 27 1;
#X connect 29 1 28 0;
#X connect 30 0 0 0;
#X connect 30 1 29 0;
#X connect 30 2 37 0;
#X connect 32 0 33 0;
#X connect 32 1 36 0;
#X connect 33 0 31 0;
#X connect 34 0 31 0;
#X connect 35 0 36 1;
#X connect 36 0 34 0;
#X connect 37 0 32 0;
#X connect 38 0 4 0;
#X connect 39 0 7 0;
#X restore 93 236 pd env;
#N canvas 539 98 596 517 env 0;
#X obj 162 -121 >;
#X obj 273 70 r \$0-r;
#X obj 108 34 r \$0-d;
#X obj 89 12 r \$0-a;
#X obj 85 151 vline~;
#X obj 74 50 f;
#X obj 244 87 f;
#X obj 269 161 line~;
#X obj 162 -26 sel 1 0;
#X msg 157 241 0;
#X obj 84 250 *~;
#X obj 125 258 sig~;
#X msg 125 225 1;
#X obj 163 -3 t b b;
#X obj 256 289 *~;
#X obj 188 220 samphold~;
#X msg 100 129 0 \$1;
#X obj 84 305 +~;
#X obj 244 112 t f f;
#X obj 244 4 t b b;
#X obj 84 194 tabread4~ \$0-ad-shape;
#X obj 270 215 tabread4~ \$0-r-shape;
#X obj 84 172 +~ 1;
#X obj 270 187 +~ 1;
#X obj 472 350 outlet~;
#X obj 460 -181 inlet;
#X obj 85 72 pack;
#X obj 473 323 *~;
#X obj 487 270 sig~;
#X obj 479 -17 sel 0;
#X obj 460 -161 t f f f;
#X obj 591 -50 switch~;
#X obj 527 -123 sel 1 0;
#X msg 527 -91 1;
#X msg 591 -73 0;
#X obj 606 -120 r \$0-r;
#X obj 591 -94 del;
#X obj 527 -144 >;
#X msg 85 100 0 \, 1024 \$1 \, 2048 \$2 \$1;
#X msg 269 139 0 \, 1024 \$1;
#X connect 0 0 8 0;
#X connect 1 0 6 1;
#X connect 2 0 26 1;
#X connect 3 0 5 1;
#X connect 4 0 22 0;
#X connect 5 0 26 0;
#X connect 6 0 18 0;
#X connect 7 0 15 1;
#X connect 7 0 23 0;
#X connect 8 0 13 0;
#X connect 8 1 19 0;
#X connect 9 0 11 0;
#X connect 10 0 17 0;
#X connect 11 0 10 1;
#X connect 12 0 11 0;
#X connect 13 0 5 0;
#X connect 13 1 12 0;
#X connect 14 0 17 1;
#X connect 15 0 14 0;
#X connect 16 0 4 0;
#X connect 17 0 27 0;
#X connect 18 0 16 0;
#X connect 18 1 39 0;
#X connect 19 0 6 0;
#X connect 19 1 9 0;
#X connect 20 0 10 0;
#X connect 20 0 15 0;
#X connect 21 0 14 1;
#X connect 22 0 20 0;
#X connect 23 0 21 0;
#X connect 25 0 30 0;
#X connect 26 0 38 0;
#X connect 27 0 24 0;
#X connect 28 0 27 1;
#X connect 29 1 28 0;
#X connect 30 0 0 0;
#X connect 30 1 29 0;
#X connect 30 2 37 0;
#X connect 32 0 33 0;
#X connect 32 1 36 0;
#X connect 33 0 31 0;
#X connect 34 0 31 0;
#X connect 35 0 36 1;
#X connect 36 0 34 0;
#X connect 37 0 32 0;
#X connect 38 0 4 0;
#X connect 39 0 7 0;
#X restore 149 235 pd env;
#N canvas 539 98 596 517 env 0;
#X obj 162 -121 >;
#X obj 273 70 r \$0-r;
#X obj 108 34 r \$0-d;
#X obj 89 12 r \$0-a;
#X obj 85 151 vline~;
#X obj 74 50 f;
#X obj 244 87 f;
#X obj 269 161 line~;
#X obj 162 -26 sel 1 0;
#X msg 157 241 0;
#X obj 84 250 *~;
#X obj 125 258 sig~;
#X msg 125 225 1;
#X obj 163 -3 t b b;
#X obj 256 289 *~;
#X obj 188 220 samphold~;
#X msg 100 129 0 \$1;
#X obj 84 305 +~;
#X obj 244 112 t f f;
#X obj 244 4 t b b;
#X obj 84 194 tabread4~ \$0-ad-shape;
#X obj 270 215 tabread4~ \$0-r-shape;
#X obj 84 172 +~ 1;
#X obj 270 187 +~ 1;
#X obj 472 350 outlet~;
#X obj 460 -181 inlet;
#X obj 85 72 pack;
#X obj 473 323 *~;
#X obj 487 270 sig~;
#X obj 479 -17 sel 0;
#X obj 460 -161 t f f f;
#X obj 591 -50 switch~;
#X obj 527 -123 sel 1 0;
#X msg 527 -91 1;
#X msg 591 -73 0;
#X obj 606 -120 r \$0-r;
#X obj 591 -94 del;
#X obj 527 -144 >;
#X msg 85 100 0 \, 1024 \$1 \, 2048 \$2 \$1;
#X msg 269 139 0 \, 1024 \$1;
#X connect 0 0 8 0;
#X connect 1 0 6 1;
#X connect 2 0 26 1;
#X connect 3 0 5 1;
#X connect 4 0 22 0;
#X connect 5 0 26 0;
#X connect 6 0 18 0;
#X connect 7 0 15 1;
#X connect 7 0 23 0;
#X connect 8 0 13 0;
#X connect 8 1 19 0;
#X connect 9 0 11 0;
#X connect 10 0 17 0;
#X connect 11 0 10 1;
#X connect 12 0 11 0;
#X connect 13 0 5 0;
#X connect 13 1 12 0;
#X connect 14 0 17 1;
#X connect 15 0 14 0;
#X connect 16 0 4 0;
#X connect 17 0 27 0;
#X connect 18 0 16 0;
#X connect 18 1 39 0;
#X connect 19 0 6 0;
#X connect 19 1 9 0;
#X connect 20 0 10 0;
#X connect 20 0 15 0;
#X connect 21 0 14 1;
#X connect 22 0 20 0;
#X connect 23 0 21 0;
#X connect 25 0 30 0;
#X connect 26 0 38 0;
#X connect 27 0 24 0;
#X connect 28 0 27 1;
#X connect 29 1 28 0;
#X connect 30 0 0 0;
#X connect 30 1 29 0;
#X connect 30 2 37 0;
#X connect 32 0 33 0;
#X connect 32 1 36 0;
#X connect 33 0 31 0;
#X connect 34 0 31 0;
#X connect 35 0 36 1;
#X connect 36 0 34 0;
#X connect 37 0 32 0;
#X connect 38 0 4 0;
#X connect 39 0 7 0;
#X restore 209 235 pd env;
#X obj 294 365 -~;
#X obj 293 343 sig~ 1;
#X obj 262 380 *~;
#N canvas 539 98 596 517 env 0;
#X obj 162 -121 >;
#X obj 273 70 r \$0-r;
#X obj 108 34 r \$0-d;
#X obj 89 12 r \$0-a;
#X obj 85 151 vline~;
#X obj 74 50 f;
#X obj 244 87 f;
#X obj 269 161 line~;
#X obj 162 -26 sel 1 0;
#X msg 157 241 0;
#X obj 84 250 *~;
#X obj 125 258 sig~;
#X msg 125 225 1;
#X obj 163 -3 t b b;
#X obj 256 289 *~;
#X obj 188 220 samphold~;
#X msg 100 129 0 \$1;
#X obj 84 305 +~;
#X obj 244 112 t f f;
#X obj 244 4 t b b;
#X obj 84 194 tabread4~ \$0-ad-shape;
#X obj 270 215 tabread4~ \$0-r-shape;
#X obj 84 172 +~ 1;
#X obj 270 187 +~ 1;
#X obj 472 350 outlet~;
#X obj 460 -181 inlet;
#X obj 85 72 pack;
#X obj 473 323 *~;
#X obj 487 270 sig~;
#X obj 479 -17 sel 0;
#X obj 460 -161 t f f f;
#X obj 591 -50 switch~;
#X obj 527 -123 sel 1 0;
#X msg 527 -91 1;
#X msg 591 -73 0;
#X obj 606 -120 r \$0-r;
#X obj 591 -94 del;
#X obj 527 -144 >;
#X msg 85 100 0 \, 1024 \$1 \, 2048 \$2 \$1;
#X msg 269 139 0 \, 1024 \$1;
#X connect 0 0 8 0;
#X connect 1 0 6 1;
#X connect 2 0 26 1;
#X connect 3 0 5 1;
#X connect 4 0 22 0;
#X connect 5 0 26 0;
#X connect 6 0 18 0;
#X connect 7 0 15 1;
#X connect 7 0 23 0;
#X connect 8 0 13 0;
#X connect 8 1 19 0;
#X connect 9 0 11 0;
#X connect 10 0 17 0;
#X connect 11 0 10 1;
#X connect 12 0 11 0;
#X connect 13 0 5 0;
#X connect 13 1 12 0;
#X connect 14 0 17 1;
#X connect 15 0 14 0;
#X connect 16 0 4 0;
#X connect 17 0 27 0;
#X connect 18 0 16 0;
#X connect 18 1 39 0;
#X connect 19 0 6 0;
#X connect 19 1 9 0;
#X connect 20 0 10 0;
#X connect 20 0 15 0;
#X connect 21 0 14 1;
#X connect 22 0 20 0;
#X connect 23 0 21 0;
#X connect 25 0 30 0;
#X connect 26 0 38 0;
#X connect 27 0 24 0;
#X connect 28 0 27 1;
#X connect 29 1 28 0;
#X connect 30 0 0 0;
#X connect 30 1 29 0;
#X connect 30 2 37 0;
#X connect 32 0 33 0;
#X connect 32 1 36 0;
#X connect 33 0 31 0;
#X connect 34 0 31 0;
#X connect 35 0 36 1;
#X connect 36 0 34 0;
#X connect 37 0 32 0;
#X connect 38 0 4 0;
#X connect 39 0 7 0;
#X restore 263 235 pd env;
#X obj 309 321 *~;
#X obj 412 355 -~;
#X obj 411 333 sig~ 1;
#X obj 380 370 *~;
#X obj 426 312 *~;
#X obj 364 426 *~;
#X obj 349 470 -~;
#X obj 348 448 sig~ 1;
#X obj 317 486 *~;
#N canvas 539 98 596 517 env 0;
#X obj 162 -121 >;
#X obj 273 70 r \$0-r;
#X obj 108 34 r \$0-d;
#X obj 89 12 r \$0-a;
#X obj 85 151 vline~;
#X obj 74 50 f;
#X obj 244 87 f;
#X obj 269 161 line~;
#X obj 162 -26 sel 1 0;
#X msg 157 241 0;
#X obj 84 250 *~;
#X obj 125 258 sig~;
#X msg 125 225 1;
#X obj 163 -3 t b b;
#X obj 256 289 *~;
#X obj 188 220 samphold~;
#X msg 100 129 0 \$1;
#X obj 84 305 +~;
#X obj 244 112 t f f;
#X obj 244 4 t b b;
#X obj 84 194 tabread4~ \$0-ad-shape;
#X obj 270 215 tabread4~ \$0-r-shape;
#X obj 84 172 +~ 1;
#X obj 270 187 +~ 1;
#X obj 472 350 outlet~;
#X obj 460 -181 inlet;
#X obj 85 72 pack;
#X obj 473 323 *~;
#X obj 487 270 sig~;
#X obj 479 -17 sel 0;
#X obj 460 -161 t f f f;
#X obj 591 -50 switch~;
#X obj 527 -123 sel 1 0;
#X msg 527 -91 1;
#X msg 591 -73 0;
#X obj 606 -120 r \$0-r;
#X obj 591 -94 del;
#X obj 527 -144 >;
#X msg 85 100 0 \, 1024 \$1 \, 2048 \$2 \$1;
#X msg 269 139 0 \, 1024 \$1;
#X connect 0 0 8 0;
#X connect 1 0 6 1;
#X connect 2 0 26 1;
#X connect 3 0 5 1;
#X connect 4 0 22 0;
#X connect 5 0 26 0;
#X connect 6 0 18 0;
#X connect 7 0 15 1;
#X connect 7 0 23 0;
#X connect 8 0 13 0;
#X connect 8 1 19 0;
#X connect 9 0 11 0;
#X connect 10 0 17 0;
#X connect 11 0 10 1;
#X connect 12 0 11 0;
#X connect 13 0 5 0;
#X connect 13 1 12 0;
#X connect 14 0 17 1;
#X connect 15 0 14 0;
#X connect 16 0 4 0;
#X connect 17 0 27 0;
#X connect 18 0 16 0;
#X connect 18 1 39 0;
#X connect 19 0 6 0;
#X connect 19 1 9 0;
#X connect 20 0 10 0;
#X connect 20 0 15 0;
#X connect 21 0 14 1;
#X connect 22 0 20 0;
#X connect 23 0 21 0;
#X connect 25 0 30 0;
#X connect 26 0 38 0;
#X connect 27 0 24 0;
#X connect 28 0 27 1;
#X connect 29 1 28 0;
#X connect 30 0 0 0;
#X connect 30 1 29 0;
#X connect 30 2 37 0;
#X connect 32 0 33 0;
#X connect 32 1 36 0;
#X connect 33 0 31 0;
#X connect 34 0 31 0;
#X connect 35 0 36 1;
#X connect 36 0 34 0;
#X connect 37 0 32 0;
#X connect 38 0 4 0;
#X connect 39 0 7 0;
#X restore 325 235 pd env;
#N canvas 539 98 596 517 env 0;
#X obj 162 -121 >;
#X obj 273 70 r \$0-r;
#X obj 108 34 r \$0-d;
#X obj 89 12 r \$0-a;
#X obj 85 151 vline~;
#X obj 74 50 f;
#X obj 244 87 f;
#X obj 269 161 line~;
#X obj 162 -26 sel 1 0;
#X msg 157 241 0;
#X obj 84 250 *~;
#X obj 125 258 sig~;
#X msg 125 225 1;
#X obj 163 -3 t b b;
#X obj 256 289 *~;
#X obj 188 220 samphold~;
#X msg 100 129 0 \$1;
#X obj 84 305 +~;
#X obj 244 112 t f f;
#X obj 244 4 t b b;
#X obj 84 194 tabread4~ \$0-ad-shape;
#X obj 270 215 tabread4~ \$0-r-shape;
#X obj 84 172 +~ 1;
#X obj 270 187 +~ 1;
#X obj 472 350 outlet~;
#X obj 460 -181 inlet;
#X obj 85 72 pack;
#X obj 473 323 *~;
#X obj 487 270 sig~;
#X obj 479 -17 sel 0;
#X obj 460 -161 t f f f;
#X obj 591 -50 switch~;
#X obj 527 -123 sel 1 0;
#X msg 527 -91 1;
#X msg 591 -73 0;
#X obj 606 -120 r \$0-r;
#X obj 591 -94 del;
#X obj 527 -144 >;
#X msg 85 100 0 \, 1024 \$1 \, 2048 \$2 \$1;
#X msg 269 139 0 \, 1024 \$1;
#X connect 0 0 8 0;
#X connect 1 0 6 1;
#X connect 2 0 26 1;
#X connect 3 0 5 1;
#X connect 4 0 22 0;
#X connect 5 0 26 0;
#X connect 6 0 18 0;
#X connect 7 0 15 1;
#X connect 7 0 23 0;
#X connect 8 0 13 0;
#X connect 8 1 19 0;
#X connect 9 0 11 0;
#X connect 10 0 17 0;
#X connect 11 0 10 1;
#X connect 12 0 11 0;
#X connect 13 0 5 0;
#X connect 13 1 12 0;
#X connect 14 0 17 1;
#X connect 15 0 14 0;
#X connect 16 0 4 0;
#X connect 17 0 27 0;
#X connect 18 0 16 0;
#X connect 18 1 39 0;
#X connect 19 0 6 0;
#X connect 19 1 9 0;
#X connect 20 0 10 0;
#X connect 20 0 15 0;
#X connect 21 0 14 1;
#X connect 22 0 20 0;
#X connect 23 0 21 0;
#X connect 25 0 30 0;
#X connect 26 0 38 0;
#X connect 27 0 24 0;
#X connect 28 0 27 1;
#X connect 29 1 28 0;
#X connect 30 0 0 0;
#X connect 30 1 29 0;
#X connect 30 2 37 0;
#X connect 32 0 33 0;
#X connect 32 1 36 0;
#X connect 33 0 31 0;
#X connect 34 0 31 0;
#X connect 35 0 36 1;
#X connect 36 0 34 0;
#X connect 37 0 32 0;
#X connect 38 0 4 0;
#X connect 39 0 7 0;
#X restore 381 234 pd env;
#N canvas 539 98 596 517 env 0;
#X obj 162 -121 >;
#X obj 273 70 r \$0-r;
#X obj 108 34 r \$0-d;
#X obj 89 12 r \$0-a;
#X obj 85 151 vline~;
#X obj 74 50 f;
#X obj 244 87 f;
#X obj 269 161 line~;
#X obj 162 -26 sel 1 0;
#X msg 157 241 0;
#X obj 84 250 *~;
#X obj 125 258 sig~;
#X msg 125 225 1;
#X obj 163 -3 t b b;
#X obj 256 289 *~;
#X obj 188 220 samphold~;
#X msg 100 129 0 \$1;
#X obj 84 305 +~;
#X obj 244 112 t f f;
#X obj 244 4 t b b;
#X obj 84 194 tabread4~ \$0-ad-shape;
#X obj 270 215 tabread4~ \$0-r-shape;
#X obj 84 172 +~ 1;
#X obj 270 187 +~ 1;
#X obj 472 350 outlet~;
#X obj 460 -181 inlet;
#X obj 85 72 pack;
#X obj 473 323 *~;
#X obj 487 270 sig~;
#X obj 479 -17 sel 0;
#X obj 460 -161 t f f f;
#X obj 591 -50 switch~;
#X obj 527 -123 sel 1 0;
#X msg 527 -91 1;
#X msg 591 -73 0;
#X obj 606 -120 r \$0-r;
#X obj 591 -94 del;
#X obj 527 -144 >;
#X msg 85 100 0 \, 1024 \$1 \, 2048 \$2 \$1;
#X msg 269 139 0 \, 1024 \$1;
#X connect 0 0 8 0;
#X connect 1 0 6 1;
#X connect 2 0 26 1;
#X connect 3 0 5 1;
#X connect 4 0 22 0;
#X connect 5 0 26 0;
#X connect 6 0 18 0;
#X connect 7 0 15 1;
#X connect 7 0 23 0;
#X connect 8 0 13 0;
#X connect 8 1 19 0;
#X connect 9 0 11 0;
#X connect 10 0 17 0;
#X connect 11 0 10 1;
#X connect 12 0 11 0;
#X connect 13 0 5 0;
#X connect 13 1 12 0;
#X connect 14 0 17 1;
#X connect 15 0 14 0;
#X connect 16 0 4 0;
#X connect 17 0 27 0;
#X connect 18 0 16 0;
#X connect 18 1 39 0;
#X connect 19 0 6 0;
#X connect 19 1 9 0;
#X connect 20 0 10 0;
#X connect 20 0 15 0;
#X connect 21 0 14 1;
#X connect 22 0 20 0;
#X connect 23 0 21 0;
#X connect 25 0 30 0;
#X connect 26 0 38 0;
#X connect 27 0 24 0;
#X connect 28 0 27 1;
#X connect 29 1 28 0;
#X connect 30 0 0 0;
#X connect 30 1 29 0;
#X connect 30 2 37 0;
#X connect 32 0 33 0;
#X connect 32 1 36 0;
#X connect 33 0 31 0;
#X connect 34 0 31 0;
#X connect 35 0 36 1;
#X connect 36 0 34 0;
#X connect 37 0 32 0;
#X connect 38 0 4 0;
#X connect 39 0 7 0;
#X restore 441 234 pd env;
#X obj 521 364 -~;
#X obj 520 342 sig~ 1;
#X obj 489 379 *~;
#N canvas 539 98 596 517 env 0;
#X obj 162 -121 >;
#X obj 273 70 r \$0-r;
#X obj 108 34 r \$0-d;
#X obj 89 12 r \$0-a;
#X obj 85 151 vline~;
#X obj 74 50 f;
#X obj 244 87 f;
#X obj 269 161 line~;
#X obj 162 -26 sel 1 0;
#X msg 157 241 0;
#X obj 84 250 *~;
#X obj 125 258 sig~;
#X msg 125 225 1;
#X obj 163 -3 t b b;
#X obj 256 289 *~;
#X obj 188 220 samphold~;
#X msg 100 129 0 \$1;
#X obj 84 305 +~;
#X obj 244 112 t f f;
#X obj 244 4 t b b;
#X obj 84 194 tabread4~ \$0-ad-shape;
#X obj 270 215 tabread4~ \$0-r-shape;
#X obj 84 172 +~ 1;
#X obj 270 187 +~ 1;
#X obj 472 350 outlet~;
#X obj 460 -181 inlet;
#X obj 85 72 pack;
#X obj 473 323 *~;
#X obj 487 270 sig~;
#X obj 479 -17 sel 0;
#X obj 460 -161 t f f f;
#X obj 591 -50 switch~;
#X obj 527 -123 sel 1 0;
#X msg 527 -91 1;
#X msg 591 -73 0;
#X obj 606 -120 r \$0-r;
#X obj 591 -94 del;
#X obj 527 -144 >;
#X msg 85 100 0 \, 1024 \$1 \, 2048 \$2 \$1;
#X msg 269 139 0 \, 1024 \$1;
#X connect 0 0 8 0;
#X connect 1 0 6 1;
#X connect 2 0 26 1;
#X connect 3 0 5 1;
#X connect 4 0 22 0;
#X connect 5 0 26 0;
#X connect 6 0 18 0;
#X connect 7 0 15 1;
#X connect 7 0 23 0;
#X connect 8 0 13 0;
#X connect 8 1 19 0;
#X connect 9 0 11 0;
#X connect 10 0 17 0;
#X connect 11 0 10 1;
#X connect 12 0 11 0;
#X connect 13 0 5 0;
#X connect 13 1 12 0;
#X connect 14 0 17 1;
#X connect 15 0 14 0;
#X connect 16 0 4 0;
#X connect 17 0 27 0;
#X connect 18 0 16 0;
#X connect 18 1 39 0;
#X connect 19 0 6 0;
#X connect 19 1 9 0;
#X connect 20 0 10 0;
#X connect 20 0 15 0;
#X connect 21 0 14 1;
#X connect 22 0 20 0;
#X connect 23 0 21 0;
#X connect 25 0 30 0;
#X connect 26 0 38 0;
#X connect 27 0 24 0;
#X connect 28 0 27 1;
#X connect 29 1 28 0;
#X connect 30 0 0 0;
#X connect 30 1 29 0;
#X connect 30 2 37 0;
#X connect 32 0 33 0;
#X connect 32 1 36 0;
#X connect 33 0 31 0;
#X connect 34 0 31 0;
#X connect 35 0 36 1;
#X connect 36 0 34 0;
#X connect 37 0 32 0;
#X connect 38 0 4 0;
#X connect 39 0 7 0;
#X restore 490 234 pd env;
#X obj 536 320 *~;
#X obj 639 354 -~;
#X obj 638 332 sig~ 1;
#X obj 607 369 *~;
#X obj 653 311 *~;
#X obj 591 425 *~;
#X obj 576 469 -~;
#X obj 575 447 sig~ 1;
#X obj 544 485 *~;
#X obj 761 540 *~;
#X obj 746 584 -~;
#X obj 745 562 sig~ 1;
#X obj 714 600 *~;
#N canvas 539 98 596 517 env 0;
#X obj 162 -121 >;
#X obj 273 70 r \$0-r;
#X obj 108 34 r \$0-d;
#X obj 89 12 r \$0-a;
#X obj 85 151 vline~;
#X obj 74 50 f;
#X obj 244 87 f;
#X obj 269 161 line~;
#X obj 162 -26 sel 1 0;
#X msg 157 241 0;
#X obj 84 250 *~;
#X obj 125 258 sig~;
#X msg 125 225 1;
#X obj 163 -3 t b b;
#X obj 256 289 *~;
#X obj 188 220 samphold~;
#X msg 100 129 0 \$1;
#X obj 84 305 +~;
#X obj 244 112 t f f;
#X obj 244 4 t b b;
#X obj 84 194 tabread4~ \$0-ad-shape;
#X obj 270 215 tabread4~ \$0-r-shape;
#X obj 84 172 +~ 1;
#X obj 270 187 +~ 1;
#X obj 472 350 outlet~;
#X obj 460 -181 inlet;
#X obj 85 72 pack;
#X obj 473 323 *~;
#X obj 487 270 sig~;
#X obj 479 -17 sel 0;
#X obj 460 -161 t f f f;
#X obj 591 -50 switch~;
#X obj 527 -123 sel 1 0;
#X msg 527 -91 1;
#X msg 591 -73 0;
#X obj 606 -120 r \$0-r;
#X obj 591 -94 del;
#X obj 527 -144 >;
#X msg 85 100 0 \, 1024 \$1 \, 2048 \$2 \$1;
#X msg 269 139 0 \, 1024 \$1;
#X connect 0 0 8 0;
#X connect 1 0 6 1;
#X connect 2 0 26 1;
#X connect 3 0 5 1;
#X connect 4 0 22 0;
#X connect 5 0 26 0;
#X connect 6 0 18 0;
#X connect 7 0 15 1;
#X connect 7 0 23 0;
#X connect 8 0 13 0;
#X connect 8 1 19 0;
#X connect 9 0 11 0;
#X connect 10 0 17 0;
#X connect 11 0 10 1;
#X connect 12 0 11 0;
#X connect 13 0 5 0;
#X connect 13 1 12 0;
#X connect 14 0 17 1;
#X connect 15 0 14 0;
#X connect 16 0 4 0;
#X connect 17 0 27 0;
#X connect 18 0 16 0;
#X connect 18 1 39 0;
#X connect 19 0 6 0;
#X connect 19 1 9 0;
#X connect 20 0 10 0;
#X connect 20 0 15 0;
#X connect 21 0 14 1;
#X connect 22 0 20 0;
#X connect 23 0 21 0;
#X connect 25 0 30 0;
#X connect 26 0 38 0;
#X connect 27 0 24 0;
#X connect 28 0 27 1;
#X connect 29 1 28 0;
#X connect 30 0 0 0;
#X connect 30 1 29 0;
#X connect 30 2 37 0;
#X connect 32 0 33 0;
#X connect 32 1 36 0;
#X connect 33 0 31 0;
#X connect 34 0 31 0;
#X connect 35 0 36 1;
#X connect 36 0 34 0;
#X connect 37 0 32 0;
#X connect 38 0 4 0;
#X connect 39 0 7 0;
#X restore 552 234 pd env;
#N canvas 539 98 596 517 env 0;
#X obj 162 -121 >;
#X obj 273 70 r \$0-r;
#X obj 108 34 r \$0-d;
#X obj 89 12 r \$0-a;
#X obj 85 151 vline~;
#X obj 74 50 f;
#X obj 244 87 f;
#X obj 269 161 line~;
#X obj 162 -26 sel 1 0;
#X msg 157 241 0;
#X obj 84 250 *~;
#X obj 125 258 sig~;
#X msg 125 225 1;
#X obj 163 -3 t b b;
#X obj 256 289 *~;
#X obj 188 220 samphold~;
#X msg 100 129 0 \$1;
#X obj 84 305 +~;
#X obj 244 112 t f f;
#X obj 244 4 t b b;
#X obj 84 194 tabread4~ \$0-ad-shape;
#X obj 270 215 tabread4~ \$0-r-shape;
#X obj 84 172 +~ 1;
#X obj 270 187 +~ 1;
#X obj 472 350 outlet~;
#X obj 460 -181 inlet;
#X obj 85 72 pack;
#X obj 473 323 *~;
#X obj 487 270 sig~;
#X obj 479 -17 sel 0;
#X obj 460 -161 t f f f;
#X obj 591 -50 switch~;
#X obj 527 -123 sel 1 0;
#X msg 527 -91 1;
#X msg 591 -73 0;
#X obj 606 -120 r \$0-r;
#X obj 591 -94 del;
#X obj 527 -144 >;
#X msg 85 100 0 \, 1024 \$1 \, 2048 \$2 \$1;
#X msg 269 139 0 \, 1024 \$1;
#X connect 0 0 8 0;
#X connect 1 0 6 1;
#X connect 2 0 26 1;
#X connect 3 0 5 1;
#X connect 4 0 22 0;
#X connect 5 0 26 0;
#X connect 6 0 18 0;
#X connect 7 0 15 1;
#X connect 7 0 23 0;
#X connect 8 0 13 0;
#X connect 8 1 19 0;
#X connect 9 0 11 0;
#X connect 10 0 17 0;
#X connect 11 0 10 1;
#X connect 12 0 11 0;
#X connect 13 0 5 0;
#X connect 13 1 12 0;
#X connect 14 0 17 1;
#X connect 15 0 14 0;
#X connect 16 0 4 0;
#X connect 17 0 27 0;
#X connect 18 0 16 0;
#X connect 18 1 39 0;
#X connect 19 0 6 0;
#X connect 19 1 9 0;
#X connect 20 0 10 0;
#X connect 20 0 15 0;
#X connect 21 0 14 1;
#X connect 22 0 20 0;
#X connect 23 0 21 0;
#X connect 25 0 30 0;
#X connect 26 0 38 0;
#X connect 27 0 24 0;
#X connect 28 0 27 1;
#X connect 29 1 28 0;
#X connect 30 0 0 0;
#X connect 30 1 29 0;
#X connect 30 2 37 0;
#X connect 32 0 33 0;
#X connect 32 1 36 0;
#X connect 33 0 31 0;
#X connect 34 0 31 0;
#X connect 35 0 36 1;
#X connect 36 0 34 0;
#X connect 37 0 32 0;
#X connect 38 0 4 0;
#X connect 39 0 7 0;
#X restore 608 233 pd env;
#N canvas 539 98 596 517 env 0;
#X obj 162 -121 >;
#X obj 273 70 r \$0-r;
#X obj 108 34 r \$0-d;
#X obj 89 12 r \$0-a;
#X obj 85 151 vline~;
#X obj 74 50 f;
#X obj 244 87 f;
#X obj 269 161 line~;
#X obj 162 -26 sel 1 0;
#X msg 157 241 0;
#X obj 84 250 *~;
#X obj 125 258 sig~;
#X msg 125 225 1;
#X obj 163 -3 t b b;
#X obj 256 289 *~;
#X obj 188 220 samphold~;
#X msg 100 129 0 \$1;
#X obj 84 305 +~;
#X obj 244 112 t f f;
#X obj 244 4 t b b;
#X obj 84 194 tabread4~ \$0-ad-shape;
#X obj 270 215 tabread4~ \$0-r-shape;
#X obj 84 172 +~ 1;
#X obj 270 187 +~ 1;
#X obj 472 350 outlet~;
#X obj 460 -181 inlet;
#X obj 85 72 pack;
#X obj 473 323 *~;
#X obj 487 270 sig~;
#X obj 479 -17 sel 0;
#X obj 460 -161 t f f f;
#X obj 591 -50 switch~;
#X obj 527 -123 sel 1 0;
#X msg 527 -91 1;
#X msg 591 -73 0;
#X obj 606 -120 r \$0-r;
#X obj 591 -94 del;
#X obj 527 -144 >;
#X msg 85 100 0 \, 1024 \$1 \, 2048 \$2 \$1;
#X msg 269 139 0 \, 1024 \$1;
#X connect 0 0 8 0;
#X connect 1 0 6 1;
#X connect 2 0 26 1;
#X connect 3 0 5 1;
#X connect 4 0 22 0;
#X connect 5 0 26 0;
#X connect 6 0 18 0;
#X connect 7 0 15 1;
#X connect 7 0 23 0;
#X connect 8 0 13 0;
#X connect 8 1 19 0;
#X connect 9 0 11 0;
#X connect 10 0 17 0;
#X connect 11 0 10 1;
#X connect 12 0 11 0;
#X connect 13 0 5 0;
#X connect 13 1 12 0;
#X connect 14 0 17 1;
#X connect 15 0 14 0;
#X connect 16 0 4 0;
#X connect 17 0 27 0;
#X connect 18 0 16 0;
#X connect 18 1 39 0;
#X connect 19 0 6 0;
#X connect 19 1 9 0;
#X connect 20 0 10 0;
#X connect 20 0 15 0;
#X connect 21 0 14 1;
#X connect 22 0 20 0;
#X connect 23 0 21 0;
#X connect 25 0 30 0;
#X connect 26 0 38 0;
#X connect 27 0 24 0;
#X connect 28 0 27 1;
#X connect 29 1 28 0;
#X connect 30 0 0 0;
#X connect 30 1 29 0;
#X connect 30 2 37 0;
#X connect 32 0 33 0;
#X connect 32 1 36 0;
#X connect 33 0 31 0;
#X connect 34 0 31 0;
#X connect 35 0 36 1;
#X connect 36 0 34 0;
#X connect 37 0 32 0;
#X connect 38 0 4 0;
#X connect 39 0 7 0;
#X restore 668 233 pd env;
#X obj 753 363 -~;
#X obj 752 341 sig~ 1;
#X obj 721 378 *~;
#N canvas 539 98 596 517 env 0;
#X obj 162 -121 >;
#X obj 273 70 r \$0-r;
#X obj 108 34 r \$0-d;
#X obj 89 12 r \$0-a;
#X obj 85 151 vline~;
#X obj 74 50 f;
#X obj 244 87 f;
#X obj 269 161 line~;
#X obj 162 -26 sel 1 0;
#X msg 157 241 0;
#X obj 84 250 *~;
#X obj 125 258 sig~;
#X msg 125 225 1;
#X obj 163 -3 t b b;
#X obj 256 289 *~;
#X obj 188 220 samphold~;
#X msg 100 129 0 \$1;
#X obj 84 305 +~;
#X obj 244 112 t f f;
#X obj 244 4 t b b;
#X obj 84 194 tabread4~ \$0-ad-shape;
#X obj 270 215 tabread4~ \$0-r-shape;
#X obj 84 172 +~ 1;
#X obj 270 187 +~ 1;
#X obj 472 350 outlet~;
#X obj 460 -181 inlet;
#X obj 85 72 pack;
#X obj 473 323 *~;
#X obj 487 270 sig~;
#X obj 479 -17 sel 0;
#X obj 460 -161 t f f f;
#X obj 591 -50 switch~;
#X obj 527 -123 sel 1 0;
#X msg 527 -91 1;
#X msg 591 -73 0;
#X obj 606 -120 r \$0-r;
#X obj 591 -94 del;
#X obj 527 -144 >;
#X msg 85 100 0 \, 1024 \$1 \, 2048 \$2 \$1;
#X msg 269 139 0 \, 1024 \$1;
#X connect 0 0 8 0;
#X connect 1 0 6 1;
#X connect 2 0 26 1;
#X connect 3 0 5 1;
#X connect 4 0 22 0;
#X connect 5 0 26 0;
#X connect 6 0 18 0;
#X connect 7 0 15 1;
#X connect 7 0 23 0;
#X connect 8 0 13 0;
#X connect 8 1 19 0;
#X connect 9 0 11 0;
#X connect 10 0 17 0;
#X connect 11 0 10 1;
#X connect 12 0 11 0;
#X connect 13 0 5 0;
#X connect 13 1 12 0;
#X connect 14 0 17 1;
#X connect 15 0 14 0;
#X connect 16 0 4 0;
#X connect 17 0 27 0;
#X connect 18 0 16 0;
#X connect 18 1 39 0;
#X connect 19 0 6 0;
#X connect 19 1 9 0;
#X connect 20 0 10 0;
#X connect 20 0 15 0;
#X connect 21 0 14 1;
#X connect 22 0 20 0;
#X connect 23 0 21 0;
#X connect 25 0 30 0;
#X connect 26 0 38 0;
#X connect 27 0 24 0;
#X connect 28 0 27 1;
#X connect 29 1 28 0;
#X connect 30 0 0 0;
#X connect 30 1 29 0;
#X connect 30 2 37 0;
#X connect 32 0 33 0;
#X connect 32 1 36 0;
#X connect 33 0 31 0;
#X connect 34 0 31 0;
#X connect 35 0 36 1;
#X connect 36 0 34 0;
#X connect 37 0 32 0;
#X connect 38 0 4 0;
#X connect 39 0 7 0;
#X restore 722 233 pd env;
#X obj 768 319 *~;
#X obj 871 353 -~;
#X obj 870 331 sig~ 1;
#X obj 839 368 *~;
#X obj 885 310 *~;
#X obj 823 424 *~;
#X obj 808 468 -~;
#X obj 807 446 sig~ 1;
#X obj 776 484 *~;
#N canvas 539 98 596 517 env 0;
#X obj 162 -121 >;
#X obj 273 70 r \$0-r;
#X obj 108 34 r \$0-d;
#X obj 89 12 r \$0-a;
#X obj 85 151 vline~;
#X obj 74 50 f;
#X obj 244 87 f;
#X obj 269 161 line~;
#X obj 162 -26 sel 1 0;
#X msg 157 241 0;
#X obj 84 250 *~;
#X obj 125 258 sig~;
#X msg 125 225 1;
#X obj 163 -3 t b b;
#X obj 256 289 *~;
#X obj 188 220 samphold~;
#X msg 100 129 0 \$1;
#X obj 84 305 +~;
#X obj 244 112 t f f;
#X obj 244 4 t b b;
#X obj 84 194 tabread4~ \$0-ad-shape;
#X obj 270 215 tabread4~ \$0-r-shape;
#X obj 84 172 +~ 1;
#X obj 270 187 +~ 1;
#X obj 472 350 outlet~;
#X obj 460 -181 inlet;
#X obj 85 72 pack;
#X obj 473 323 *~;
#X obj 487 270 sig~;
#X obj 479 -17 sel 0;
#X obj 460 -161 t f f f;
#X obj 591 -50 switch~;
#X obj 527 -123 sel 1 0;
#X msg 527 -91 1;
#X msg 591 -73 0;
#X obj 606 -120 r \$0-r;
#X obj 591 -94 del;
#X obj 527 -144 >;
#X msg 85 100 0 \, 1024 \$1 \, 2048 \$2 \$1;
#X msg 269 139 0 \, 1024 \$1;
#X connect 0 0 8 0;
#X connect 1 0 6 1;
#X connect 2 0 26 1;
#X connect 3 0 5 1;
#X connect 4 0 22 0;
#X connect 5 0 26 0;
#X connect 6 0 18 0;
#X connect 7 0 15 1;
#X connect 7 0 23 0;
#X connect 8 0 13 0;
#X connect 8 1 19 0;
#X connect 9 0 11 0;
#X connect 10 0 17 0;
#X connect 11 0 10 1;
#X connect 12 0 11 0;
#X connect 13 0 5 0;
#X connect 13 1 12 0;
#X connect 14 0 17 1;
#X connect 15 0 14 0;
#X connect 16 0 4 0;
#X connect 17 0 27 0;
#X connect 18 0 16 0;
#X connect 18 1 39 0;
#X connect 19 0 6 0;
#X connect 19 1 9 0;
#X connect 20 0 10 0;
#X connect 20 0 15 0;
#X connect 21 0 14 1;
#X connect 22 0 20 0;
#X connect 23 0 21 0;
#X connect 25 0 30 0;
#X connect 26 0 38 0;
#X connect 27 0 24 0;
#X connect 28 0 27 1;
#X connect 29 1 28 0;
#X connect 30 0 0 0;
#X connect 30 1 29 0;
#X connect 30 2 37 0;
#X connect 32 0 33 0;
#X connect 32 1 36 0;
#X connect 33 0 31 0;
#X connect 34 0 31 0;
#X connect 35 0 36 1;
#X connect 36 0 34 0;
#X connect 37 0 32 0;
#X connect 38 0 4 0;
#X connect 39 0 7 0;
#X restore 784 233 pd env;
#N canvas 539 98 596 517 env 0;
#X obj 162 -121 >;
#X obj 273 70 r \$0-r;
#X obj 108 34 r \$0-d;
#X obj 89 12 r \$0-a;
#X obj 85 151 vline~;
#X obj 74 50 f;
#X obj 244 87 f;
#X obj 269 161 line~;
#X obj 162 -26 sel 1 0;
#X msg 157 241 0;
#X obj 84 250 *~;
#X obj 125 258 sig~;
#X msg 125 225 1;
#X obj 163 -3 t b b;
#X obj 256 289 *~;
#X obj 188 220 samphold~;
#X msg 100 129 0 \$1;
#X obj 84 305 +~;
#X obj 244 112 t f f;
#X obj 244 4 t b b;
#X obj 84 194 tabread4~ \$0-ad-shape;
#X obj 270 215 tabread4~ \$0-r-shape;
#X obj 84 172 +~ 1;
#X obj 270 187 +~ 1;
#X obj 472 350 outlet~;
#X obj 460 -181 inlet;
#X obj 85 72 pack;
#X obj 473 323 *~;
#X obj 487 270 sig~;
#X obj 479 -17 sel 0;
#X obj 460 -161 t f f f;
#X obj 591 -50 switch~;
#X obj 527 -123 sel 1 0;
#X msg 527 -91 1;
#X msg 591 -73 0;
#X obj 606 -120 r \$0-r;
#X obj 591 -94 del;
#X obj 527 -144 >;
#X msg 85 100 0 \, 1024 \$1 \, 2048 \$2 \$1;
#X msg 269 139 0 \, 1024 \$1;
#X connect 0 0 8 0;
#X connect 1 0 6 1;
#X connect 2 0 26 1;
#X connect 3 0 5 1;
#X connect 4 0 22 0;
#X connect 5 0 26 0;
#X connect 6 0 18 0;
#X connect 7 0 15 1;
#X connect 7 0 23 0;
#X connect 8 0 13 0;
#X connect 8 1 19 0;
#X connect 9 0 11 0;
#X connect 10 0 17 0;
#X connect 11 0 10 1;
#X connect 12 0 11 0;
#X connect 13 0 5 0;
#X connect 13 1 12 0;
#X connect 14 0 17 1;
#X connect 15 0 14 0;
#X connect 16 0 4 0;
#X connect 17 0 27 0;
#X connect 18 0 16 0;
#X connect 18 1 39 0;
#X connect 19 0 6 0;
#X connect 19 1 9 0;
#X connect 20 0 10 0;
#X connect 20 0 15 0;
#X connect 21 0 14 1;
#X connect 22 0 20 0;
#X connect 23 0 21 0;
#X connect 25 0 30 0;
#X connect 26 0 38 0;
#X connect 27 0 24 0;
#X connect 28 0 27 1;
#X connect 29 1 28 0;
#X connect 30 0 0 0;
#X connect 30 1 29 0;
#X connect 30 2 37 0;
#X connect 32 0 33 0;
#X connect 32 1 36 0;
#X connect 33 0 31 0;
#X connect 34 0 31 0;
#X connect 35 0 36 1;
#X connect 36 0 34 0;
#X connect 37 0 32 0;
#X connect 38 0 4 0;
#X connect 39 0 7 0;
#X restore 840 232 pd env;
#N canvas 539 98 596 517 env 0;
#X obj 162 -121 >;
#X obj 273 70 r \$0-r;
#X obj 108 34 r \$0-d;
#X obj 89 12 r \$0-a;
#X obj 85 151 vline~;
#X obj 74 50 f;
#X obj 244 87 f;
#X obj 269 161 line~;
#X obj 162 -26 sel 1 0;
#X msg 157 241 0;
#X obj 84 250 *~;
#X obj 125 258 sig~;
#X msg 125 225 1;
#X obj 163 -3 t b b;
#X obj 256 289 *~;
#X obj 188 220 samphold~;
#X msg 100 129 0 \$1;
#X obj 84 305 +~;
#X obj 244 112 t f f;
#X obj 244 4 t b b;
#X obj 84 194 tabread4~ \$0-ad-shape;
#X obj 270 215 tabread4~ \$0-r-shape;
#X obj 84 172 +~ 1;
#X obj 270 187 +~ 1;
#X obj 472 350 outlet~;
#X obj 460 -181 inlet;
#X obj 85 72 pack;
#X obj 473 323 *~;
#X obj 487 270 sig~;
#X obj 479 -17 sel 0;
#X obj 460 -161 t f f f;
#X obj 591 -50 switch~;
#X obj 527 -123 sel 1 0;
#X msg 527 -91 1;
#X msg 591 -73 0;
#X obj 606 -120 r \$0-r;
#X obj 591 -94 del;
#X obj 527 -144 >;
#X msg 85 100 0 \, 1024 \$1 \, 2048 \$2 \$1;
#X msg 269 139 0 \, 1024 \$1;
#X connect 0 0 8 0;
#X connect 1 0 6 1;
#X connect 2 0 26 1;
#X connect 3 0 5 1;
#X connect 4 0 22 0;
#X connect 5 0 26 0;
#X connect 6 0 18 0;
#X connect 7 0 15 1;
#X connect 7 0 23 0;
#X connect 8 0 13 0;
#X connect 8 1 19 0;
#X connect 9 0 11 0;
#X connect 10 0 17 0;
#X connect 11 0 10 1;
#X connect 12 0 11 0;
#X connect 13 0 5 0;
#X connect 13 1 12 0;
#X connect 14 0 17 1;
#X connect 15 0 14 0;
#X connect 16 0 4 0;
#X connect 17 0 27 0;
#X connect 18 0 16 0;
#X connect 18 1 39 0;
#X connect 19 0 6 0;
#X connect 19 1 9 0;
#X connect 20 0 10 0;
#X connect 20 0 15 0;
#X connect 21 0 14 1;
#X connect 22 0 20 0;
#X connect 23 0 21 0;
#X connect 25 0 30 0;
#X connect 26 0 38 0;
#X connect 27 0 24 0;
#X connect 28 0 27 1;
#X connect 29 1 28 0;
#X connect 30 0 0 0;
#X connect 30 1 29 0;
#X connect 30 2 37 0;
#X connect 32 0 33 0;
#X connect 32 1 36 0;
#X connect 33 0 31 0;
#X connect 34 0 31 0;
#X connect 35 0 36 1;
#X connect 36 0 34 0;
#X connect 37 0 32 0;
#X connect 38 0 4 0;
#X connect 39 0 7 0;
#X restore 900 232 pd env;
#X obj 982 361 -~;
#X obj 981 339 sig~ 1;
#X obj 950 376 *~;
#N canvas 539 98 596 517 env 0;
#X obj 162 -121 >;
#X obj 273 70 r \$0-r;
#X obj 108 34 r \$0-d;
#X obj 89 12 r \$0-a;
#X obj 85 151 vline~;
#X obj 74 50 f;
#X obj 244 87 f;
#X obj 269 161 line~;
#X obj 162 -26 sel 1 0;
#X msg 157 241 0;
#X obj 84 250 *~;
#X obj 125 258 sig~;
#X msg 125 225 1;
#X obj 163 -3 t b b;
#X obj 256 289 *~;
#X obj 188 220 samphold~;
#X msg 100 129 0 \$1;
#X obj 84 305 +~;
#X obj 244 112 t f f;
#X obj 244 4 t b b;
#X obj 84 194 tabread4~ \$0-ad-shape;
#X obj 270 215 tabread4~ \$0-r-shape;
#X obj 84 172 +~ 1;
#X obj 270 187 +~ 1;
#X obj 472 350 outlet~;
#X obj 460 -181 inlet;
#X obj 85 72 pack;
#X obj 473 323 *~;
#X obj 487 270 sig~;
#X obj 479 -17 sel 0;
#X obj 460 -161 t f f f;
#X obj 591 -50 switch~;
#X obj 527 -123 sel 1 0;
#X msg 527 -91 1;
#X msg 591 -73 0;
#X obj 606 -120 r \$0-r;
#X obj 591 -94 del;
#X obj 527 -144 >;
#X msg 85 100 0 \, 1024 \$1 \, 2048 \$2 \$1;
#X msg 269 139 0 \, 1024 \$1;
#X connect 0 0 8 0;
#X connect 1 0 6 1;
#X connect 2 0 26 1;
#X connect 3 0 5 1;
#X connect 4 0 22 0;
#X connect 5 0 26 0;
#X connect 6 0 18 0;
#X connect 7 0 15 1;
#X connect 7 0 23 0;
#X connect 8 0 13 0;
#X connect 8 1 19 0;
#X connect 9 0 11 0;
#X connect 10 0 17 0;
#X connect 11 0 10 1;
#X connect 12 0 11 0;
#X connect 13 0 5 0;
#X connect 13 1 12 0;
#X connect 14 0 17 1;
#X connect 15 0 14 0;
#X connect 16 0 4 0;
#X connect 17 0 27 0;
#X connect 18 0 16 0;
#X connect 18 1 39 0;
#X connect 19 0 6 0;
#X connect 19 1 9 0;
#X connect 20 0 10 0;
#X connect 20 0 15 0;
#X connect 21 0 14 1;
#X connect 22 0 20 0;
#X connect 23 0 21 0;
#X connect 25 0 30 0;
#X connect 26 0 38 0;
#X connect 27 0 24 0;
#X connect 28 0 27 1;
#X connect 29 1 28 0;
#X connect 30 0 0 0;
#X connect 30 1 29 0;
#X connect 30 2 37 0;
#X connect 32 0 33 0;
#X connect 32 1 36 0;
#X connect 33 0 31 0;
#X connect 34 0 31 0;
#X connect 35 0 36 1;
#X connect 36 0 34 0;
#X connect 37 0 32 0;
#X connect 38 0 4 0;
#X connect 39 0 7 0;
#X restore 951 231 pd env;
#X obj 997 317 *~;
#X obj 1100 351 -~;
#X obj 1099 329 sig~ 1;
#X obj 1068 366 *~;
#X obj 1114 308 *~;
#X obj 1052 422 *~;
#X obj 1037 466 -~;
#X obj 1036 444 sig~ 1;
#X obj 1005 482 *~;
#X obj 1222 537 *~;
#X obj 1207 581 -~;
#X obj 1206 559 sig~ 1;
#X obj 1175 597 *~;
#X obj 1410 613 *~;
#X obj 1395 657 -~;
#X obj 1394 635 sig~ 1;
#X obj 1363 673 *~;
#N canvas 539 98 596 517 env 0;
#X obj 162 -121 >;
#X obj 273 70 r \$0-r;
#X obj 108 34 r \$0-d;
#X obj 89 12 r \$0-a;
#X obj 85 151 vline~;
#X obj 74 50 f;
#X obj 244 87 f;
#X obj 269 161 line~;
#X obj 162 -26 sel 1 0;
#X msg 157 241 0;
#X obj 84 250 *~;
#X obj 125 258 sig~;
#X msg 125 225 1;
#X obj 163 -3 t b b;
#X obj 256 289 *~;
#X obj 188 220 samphold~;
#X msg 100 129 0 \$1;
#X obj 84 305 +~;
#X obj 244 112 t f f;
#X obj 244 4 t b b;
#X obj 84 194 tabread4~ \$0-ad-shape;
#X obj 270 215 tabread4~ \$0-r-shape;
#X obj 84 172 +~ 1;
#X obj 270 187 +~ 1;
#X obj 472 350 outlet~;
#X obj 460 -181 inlet;
#X obj 85 72 pack;
#X obj 473 323 *~;
#X obj 487 270 sig~;
#X obj 479 -17 sel 0;
#X obj 460 -161 t f f f;
#X obj 591 -50 switch~;
#X obj 527 -123 sel 1 0;
#X msg 527 -91 1;
#X msg 591 -73 0;
#X obj 606 -120 r \$0-r;
#X obj 591 -94 del;
#X obj 527 -144 >;
#X msg 85 100 0 \, 1024 \$1 \, 2048 \$2 \$1;
#X msg 269 139 0 \, 1024 \$1;
#X connect 0 0 8 0;
#X connect 1 0 6 1;
#X connect 2 0 26 1;
#X connect 3 0 5 1;
#X connect 4 0 22 0;
#X connect 5 0 26 0;
#X connect 6 0 18 0;
#X connect 7 0 15 1;
#X connect 7 0 23 0;
#X connect 8 0 13 0;
#X connect 8 1 19 0;
#X connect 9 0 11 0;
#X connect 10 0 17 0;
#X connect 11 0 10 1;
#X connect 12 0 11 0;
#X connect 13 0 5 0;
#X connect 13 1 12 0;
#X connect 14 0 17 1;
#X connect 15 0 14 0;
#X connect 16 0 4 0;
#X connect 17 0 27 0;
#X connect 18 0 16 0;
#X connect 18 1 39 0;
#X connect 19 0 6 0;
#X connect 19 1 9 0;
#X connect 20 0 10 0;
#X connect 20 0 15 0;
#X connect 21 0 14 1;
#X connect 22 0 20 0;
#X connect 23 0 21 0;
#X connect 25 0 30 0;
#X connect 26 0 38 0;
#X connect 27 0 24 0;
#X connect 28 0 27 1;
#X connect 29 1 28 0;
#X connect 30 0 0 0;
#X connect 30 1 29 0;
#X connect 30 2 37 0;
#X connect 32 0 33 0;
#X connect 32 1 36 0;
#X connect 33 0 31 0;
#X connect 34 0 31 0;
#X connect 35 0 36 1;
#X connect 36 0 34 0;
#X connect 37 0 32 0;
#X connect 38 0 4 0;
#X connect 39 0 7 0;
#X restore 1013 231 pd env;
#N canvas 539 98 596 517 env 0;
#X obj 162 -121 >;
#X obj 273 70 r \$0-r;
#X obj 108 34 r \$0-d;
#X obj 89 12 r \$0-a;
#X obj 85 151 vline~;
#X obj 74 50 f;
#X obj 244 87 f;
#X obj 269 161 line~;
#X obj 162 -26 sel 1 0;
#X msg 157 241 0;
#X obj 84 250 *~;
#X obj 125 258 sig~;
#X msg 125 225 1;
#X obj 163 -3 t b b;
#X obj 256 289 *~;
#X obj 188 220 samphold~;
#X msg 100 129 0 \$1;
#X obj 84 305 +~;
#X obj 244 112 t f f;
#X obj 244 4 t b b;
#X obj 84 194 tabread4~ \$0-ad-shape;
#X obj 270 215 tabread4~ \$0-r-shape;
#X obj 84 172 +~ 1;
#X obj 270 187 +~ 1;
#X obj 472 350 outlet~;
#X obj 460 -181 inlet;
#X obj 85 72 pack;
#X obj 473 323 *~;
#X obj 487 270 sig~;
#X obj 479 -17 sel 0;
#X obj 460 -161 t f f f;
#X obj 591 -50 switch~;
#X obj 527 -123 sel 1 0;
#X msg 527 -91 1;
#X msg 591 -73 0;
#X obj 606 -120 r \$0-r;
#X obj 591 -94 del;
#X obj 527 -144 >;
#X msg 85 100 0 \, 1024 \$1 \, 2048 \$2 \$1;
#X msg 269 139 0 \, 1024 \$1;
#X connect 0 0 8 0;
#X connect 1 0 6 1;
#X connect 2 0 26 1;
#X connect 3 0 5 1;
#X connect 4 0 22 0;
#X connect 5 0 26 0;
#X connect 6 0 18 0;
#X connect 7 0 15 1;
#X connect 7 0 23 0;
#X connect 8 0 13 0;
#X connect 8 1 19 0;
#X connect 9 0 11 0;
#X connect 10 0 17 0;
#X connect 11 0 10 1;
#X connect 12 0 11 0;
#X connect 13 0 5 0;
#X connect 13 1 12 0;
#X connect 14 0 17 1;
#X connect 15 0 14 0;
#X connect 16 0 4 0;
#X connect 17 0 27 0;
#X connect 18 0 16 0;
#X connect 18 1 39 0;
#X connect 19 0 6 0;
#X connect 19 1 9 0;
#X connect 20 0 10 0;
#X connect 20 0 15 0;
#X connect 21 0 14 1;
#X connect 22 0 20 0;
#X connect 23 0 21 0;
#X connect 25 0 30 0;
#X connect 26 0 38 0;
#X connect 27 0 24 0;
#X connect 28 0 27 1;
#X connect 29 1 28 0;
#X connect 30 0 0 0;
#X connect 30 1 29 0;
#X connect 30 2 37 0;
#X connect 32 0 33 0;
#X connect 32 1 36 0;
#X connect 33 0 31 0;
#X connect 34 0 31 0;
#X connect 35 0 36 1;
#X connect 36 0 34 0;
#X connect 37 0 32 0;
#X connect 38 0 4 0;
#X connect 39 0 7 0;
#X restore 1069 230 pd env;
#N canvas 539 98 596 517 env 0;
#X obj 162 -121 >;
#X obj 273 70 r \$0-r;
#X obj 108 34 r \$0-d;
#X obj 89 12 r \$0-a;
#X obj 85 151 vline~;
#X obj 74 50 f;
#X obj 244 87 f;
#X obj 269 161 line~;
#X obj 162 -26 sel 1 0;
#X msg 157 241 0;
#X obj 84 250 *~;
#X obj 125 258 sig~;
#X msg 125 225 1;
#X obj 163 -3 t b b;
#X obj 256 289 *~;
#X obj 188 220 samphold~;
#X msg 100 129 0 \$1;
#X obj 84 305 +~;
#X obj 244 112 t f f;
#X obj 244 4 t b b;
#X obj 84 194 tabread4~ \$0-ad-shape;
#X obj 270 215 tabread4~ \$0-r-shape;
#X obj 84 172 +~ 1;
#X obj 270 187 +~ 1;
#X obj 472 350 outlet~;
#X obj 460 -181 inlet;
#X obj 85 72 pack;
#X obj 473 323 *~;
#X obj 487 270 sig~;
#X obj 479 -17 sel 0;
#X obj 460 -161 t f f f;
#X obj 591 -50 switch~;
#X obj 527 -123 sel 1 0;
#X msg 527 -91 1;
#X msg 591 -73 0;
#X obj 606 -120 r \$0-r;
#X obj 591 -94 del;
#X obj 527 -144 >;
#X msg 85 100 0 \, 1024 \$1 \, 2048 \$2 \$1;
#X msg 269 139 0 \, 1024 \$1;
#X connect 0 0 8 0;
#X connect 1 0 6 1;
#X connect 2 0 26 1;
#X connect 3 0 5 1;
#X connect 4 0 22 0;
#X connect 5 0 26 0;
#X connect 6 0 18 0;
#X connect 7 0 15 1;
#X connect 7 0 23 0;
#X connect 8 0 13 0;
#X connect 8 1 19 0;
#X connect 9 0 11 0;
#X connect 10 0 17 0;
#X connect 11 0 10 1;
#X connect 12 0 11 0;
#X connect 13 0 5 0;
#X connect 13 1 12 0;
#X connect 14 0 17 1;
#X connect 15 0 14 0;
#X connect 16 0 4 0;
#X connect 17 0 27 0;
#X connect 18 0 16 0;
#X connect 18 1 39 0;
#X connect 19 0 6 0;
#X connect 19 1 9 0;
#X connect 20 0 10 0;
#X connect 20 0 15 0;
#X connect 21 0 14 1;
#X connect 22 0 20 0;
#X connect 23 0 21 0;
#X connect 25 0 30 0;
#X connect 26 0 38 0;
#X connect 27 0 24 0;
#X connect 28 0 27 1;
#X connect 29 1 28 0;
#X connect 30 0 0 0;
#X connect 30 1 29 0;
#X connect 30 2 37 0;
#X connect 32 0 33 0;
#X connect 32 1 36 0;
#X connect 33 0 31 0;
#X connect 34 0 31 0;
#X connect 35 0 36 1;
#X connect 36 0 34 0;
#X connect 37 0 32 0;
#X connect 38 0 4 0;
#X connect 39 0 7 0;
#X restore 1129 230 pd env;
#X obj 1214 360 -~;
#X obj 1213 338 sig~ 1;
#X obj 1182 375 *~;
#N canvas 539 98 596 517 env 0;
#X obj 162 -121 >;
#X obj 273 70 r \$0-r;
#X obj 108 34 r \$0-d;
#X obj 89 12 r \$0-a;
#X obj 85 151 vline~;
#X obj 74 50 f;
#X obj 244 87 f;
#X obj 269 161 line~;
#X obj 162 -26 sel 1 0;
#X msg 157 241 0;
#X obj 84 250 *~;
#X obj 125 258 sig~;
#X msg 125 225 1;
#X obj 163 -3 t b b;
#X obj 256 289 *~;
#X obj 188 220 samphold~;
#X msg 100 129 0 \$1;
#X obj 84 305 +~;
#X obj 244 112 t f f;
#X obj 244 4 t b b;
#X obj 84 194 tabread4~ \$0-ad-shape;
#X obj 270 215 tabread4~ \$0-r-shape;
#X obj 84 172 +~ 1;
#X obj 270 187 +~ 1;
#X obj 472 350 outlet~;
#X obj 460 -181 inlet;
#X obj 85 72 pack;
#X obj 473 323 *~;
#X obj 487 270 sig~;
#X obj 479 -17 sel 0;
#X obj 460 -161 t f f f;
#X obj 591 -50 switch~;
#X obj 527 -123 sel 1 0;
#X msg 527 -91 1;
#X msg 591 -73 0;
#X obj 606 -120 r \$0-r;
#X obj 591 -94 del;
#X obj 527 -144 >;
#X msg 85 100 0 \, 1024 \$1 \, 2048 \$2 \$1;
#X msg 269 139 0 \, 1024 \$1;
#X connect 0 0 8 0;
#X connect 1 0 6 1;
#X connect 2 0 26 1;
#X connect 3 0 5 1;
#X connect 4 0 22 0;
#X connect 5 0 26 0;
#X connect 6 0 18 0;
#X connect 7 0 15 1;
#X connect 7 0 23 0;
#X connect 8 0 13 0;
#X connect 8 1 19 0;
#X connect 9 0 11 0;
#X connect 10 0 17 0;
#X connect 11 0 10 1;
#X connect 12 0 11 0;
#X connect 13 0 5 0;
#X connect 13 1 12 0;
#X connect 14 0 17 1;
#X connect 15 0 14 0;
#X connect 16 0 4 0;
#X connect 17 0 27 0;
#X connect 18 0 16 0;
#X connect 18 1 39 0;
#X connect 19 0 6 0;
#X connect 19 1 9 0;
#X connect 20 0 10 0;
#X connect 20 0 15 0;
#X connect 21 0 14 1;
#X connect 22 0 20 0;
#X connect 23 0 21 0;
#X connect 25 0 30 0;
#X connect 26 0 38 0;
#X connect 27 0 24 0;
#X connect 28 0 27 1;
#X connect 29 1 28 0;
#X connect 30 0 0 0;
#X connect 30 1 29 0;
#X connect 30 2 37 0;
#X connect 32 0 33 0;
#X connect 32 1 36 0;
#X connect 33 0 31 0;
#X connect 34 0 31 0;
#X connect 35 0 36 1;
#X connect 36 0 34 0;
#X connect 37 0 32 0;
#X connect 38 0 4 0;
#X connect 39 0 7 0;
#X restore 1183 230 pd env;
#X obj 1229 316 *~;
#X obj 1332 350 -~;
#X obj 1331 328 sig~ 1;
#X obj 1300 365 *~;
#X obj 1346 307 *~;
#X obj 1284 421 *~;
#X obj 1269 465 -~;
#X obj 1268 443 sig~ 1;
#X obj 1237 481 *~;
#N canvas 539 98 596 517 env 0;
#X obj 162 -121 >;
#X obj 273 70 r \$0-r;
#X obj 108 34 r \$0-d;
#X obj 89 12 r \$0-a;
#X obj 85 151 vline~;
#X obj 74 50 f;
#X obj 244 87 f;
#X obj 269 161 line~;
#X obj 162 -26 sel 1 0;
#X msg 157 241 0;
#X obj 84 250 *~;
#X obj 125 258 sig~;
#X msg 125 225 1;
#X obj 163 -3 t b b;
#X obj 256 289 *~;
#X obj 188 220 samphold~;
#X msg 100 129 0 \$1;
#X obj 84 305 +~;
#X obj 244 112 t f f;
#X obj 244 4 t b b;
#X obj 84 194 tabread4~ \$0-ad-shape;
#X obj 270 215 tabread4~ \$0-r-shape;
#X obj 84 172 +~ 1;
#X obj 270 187 +~ 1;
#X obj 472 350 outlet~;
#X obj 460 -181 inlet;
#X obj 85 72 pack;
#X obj 473 323 *~;
#X obj 487 270 sig~;
#X obj 479 -17 sel 0;
#X obj 460 -161 t f f f;
#X obj 591 -50 switch~;
#X obj 527 -123 sel 1 0;
#X msg 527 -91 1;
#X msg 591 -73 0;
#X obj 606 -120 r \$0-r;
#X obj 591 -94 del;
#X obj 527 -144 >;
#X msg 85 100 0 \, 1024 \$1 \, 2048 \$2 \$1;
#X msg 269 139 0 \, 1024 \$1;
#X connect 0 0 8 0;
#X connect 1 0 6 1;
#X connect 2 0 26 1;
#X connect 3 0 5 1;
#X connect 4 0 22 0;
#X connect 5 0 26 0;
#X connect 6 0 18 0;
#X connect 7 0 15 1;
#X connect 7 0 23 0;
#X connect 8 0 13 0;
#X connect 8 1 19 0;
#X connect 9 0 11 0;
#X connect 10 0 17 0;
#X connect 11 0 10 1;
#X connect 12 0 11 0;
#X connect 13 0 5 0;
#X connect 13 1 12 0;
#X connect 14 0 17 1;
#X connect 15 0 14 0;
#X connect 16 0 4 0;
#X connect 17 0 27 0;
#X connect 18 0 16 0;
#X connect 18 1 39 0;
#X connect 19 0 6 0;
#X connect 19 1 9 0;
#X connect 20 0 10 0;
#X connect 20 0 15 0;
#X connect 21 0 14 1;
#X connect 22 0 20 0;
#X connect 23 0 21 0;
#X connect 25 0 30 0;
#X connect 26 0 38 0;
#X connect 27 0 24 0;
#X connect 28 0 27 1;
#X connect 29 1 28 0;
#X connect 30 0 0 0;
#X connect 30 1 29 0;
#X connect 30 2 37 0;
#X connect 32 0 33 0;
#X connect 32 1 36 0;
#X connect 33 0 31 0;
#X connect 34 0 31 0;
#X connect 35 0 36 1;
#X connect 36 0 34 0;
#X connect 37 0 32 0;
#X connect 38 0 4 0;
#X connect 39 0 7 0;
#X restore 1245 230 pd env;
#N canvas 539 98 596 517 env 0;
#X obj 162 -121 >;
#X obj 273 70 r \$0-r;
#X obj 108 34 r \$0-d;
#X obj 89 12 r \$0-a;
#X obj 85 151 vline~;
#X obj 74 50 f;
#X obj 244 87 f;
#X obj 269 161 line~;
#X obj 162 -26 sel 1 0;
#X msg 157 241 0;
#X obj 84 250 *~;
#X obj 125 258 sig~;
#X msg 125 225 1;
#X obj 163 -3 t b b;
#X obj 256 289 *~;
#X obj 188 220 samphold~;
#X msg 100 129 0 \$1;
#X obj 84 305 +~;
#X obj 244 112 t f f;
#X obj 244 4 t b b;
#X obj 84 194 tabread4~ \$0-ad-shape;
#X obj 270 215 tabread4~ \$0-r-shape;
#X obj 84 172 +~ 1;
#X obj 270 187 +~ 1;
#X obj 472 350 outlet~;
#X obj 460 -181 inlet;
#X obj 85 72 pack;
#X obj 473 323 *~;
#X obj 487 270 sig~;
#X obj 479 -17 sel 0;
#X obj 460 -161 t f f f;
#X obj 591 -50 switch~;
#X obj 527 -123 sel 1 0;
#X msg 527 -91 1;
#X msg 591 -73 0;
#X obj 606 -120 r \$0-r;
#X obj 591 -94 del;
#X obj 527 -144 >;
#X msg 85 100 0 \, 1024 \$1 \, 2048 \$2 \$1;
#X msg 269 139 0 \, 1024 \$1;
#X connect 0 0 8 0;
#X connect 1 0 6 1;
#X connect 2 0 26 1;
#X connect 3 0 5 1;
#X connect 4 0 22 0;
#X connect 5 0 26 0;
#X connect 6 0 18 0;
#X connect 7 0 15 1;
#X connect 7 0 23 0;
#X connect 8 0 13 0;
#X connect 8 1 19 0;
#X connect 9 0 11 0;
#X connect 10 0 17 0;
#X connect 11 0 10 1;
#X connect 12 0 11 0;
#X connect 13 0 5 0;
#X connect 13 1 12 0;
#X connect 14 0 17 1;
#X connect 15 0 14 0;
#X connect 16 0 4 0;
#X connect 17 0 27 0;
#X connect 18 0 16 0;
#X connect 18 1 39 0;
#X connect 19 0 6 0;
#X connect 19 1 9 0;
#X connect 20 0 10 0;
#X connect 20 0 15 0;
#X connect 21 0 14 1;
#X connect 22 0 20 0;
#X connect 23 0 21 0;
#X connect 25 0 30 0;
#X connect 26 0 38 0;
#X connect 27 0 24 0;
#X connect 28 0 27 1;
#X connect 29 1 28 0;
#X connect 30 0 0 0;
#X connect 30 1 29 0;
#X connect 30 2 37 0;
#X connect 32 0 33 0;
#X connect 32 1 36 0;
#X connect 33 0 31 0;
#X connect 34 0 31 0;
#X connect 35 0 36 1;
#X connect 36 0 34 0;
#X connect 37 0 32 0;
#X connect 38 0 4 0;
#X connect 39 0 7 0;
#X restore 1301 229 pd env;
#N canvas 539 98 596 517 env 0;
#X obj 162 -121 >;
#X obj 273 70 r \$0-r;
#X obj 108 34 r \$0-d;
#X obj 89 12 r \$0-a;
#X obj 85 151 vline~;
#X obj 74 50 f;
#X obj 244 87 f;
#X obj 269 161 line~;
#X obj 162 -26 sel 1 0;
#X msg 157 241 0;
#X obj 84 250 *~;
#X obj 125 258 sig~;
#X msg 125 225 1;
#X obj 163 -3 t b b;
#X obj 256 289 *~;
#X obj 188 220 samphold~;
#X msg 100 129 0 \$1;
#X obj 84 305 +~;
#X obj 244 112 t f f;
#X obj 244 4 t b b;
#X obj 84 194 tabread4~ \$0-ad-shape;
#X obj 270 215 tabread4~ \$0-r-shape;
#X obj 84 172 +~ 1;
#X obj 270 187 +~ 1;
#X obj 472 350 outlet~;
#X obj 460 -181 inlet;
#X obj 85 72 pack;
#X obj 473 323 *~;
#X obj 487 270 sig~;
#X obj 479 -17 sel 0;
#X obj 460 -161 t f f f;
#X obj 591 -50 switch~;
#X obj 527 -123 sel 1 0;
#X msg 527 -91 1;
#X msg 591 -73 0;
#X obj 606 -120 r \$0-r;
#X obj 591 -94 del;
#X obj 527 -144 >;
#X msg 85 100 0 \, 1024 \$1 \, 2048 \$2 \$1;
#X msg 269 139 0 \, 1024 \$1;
#X connect 0 0 8 0;
#X connect 1 0 6 1;
#X connect 2 0 26 1;
#X connect 3 0 5 1;
#X connect 4 0 22 0;
#X connect 5 0 26 0;
#X connect 6 0 18 0;
#X connect 7 0 15 1;
#X connect 7 0 23 0;
#X connect 8 0 13 0;
#X connect 8 1 19 0;
#X connect 9 0 11 0;
#X connect 10 0 17 0;
#X connect 11 0 10 1;
#X connect 12 0 11 0;
#X connect 13 0 5 0;
#X connect 13 1 12 0;
#X connect 14 0 17 1;
#X connect 15 0 14 0;
#X connect 16 0 4 0;
#X connect 17 0 27 0;
#X connect 18 0 16 0;
#X connect 18 1 39 0;
#X connect 19 0 6 0;
#X connect 19 1 9 0;
#X connect 20 0 10 0;
#X connect 20 0 15 0;
#X connect 21 0 14 1;
#X connect 22 0 20 0;
#X connect 23 0 21 0;
#X connect 25 0 30 0;
#X connect 26 0 38 0;
#X connect 27 0 24 0;
#X connect 28 0 27 1;
#X connect 29 1 28 0;
#X connect 30 0 0 0;
#X connect 30 1 29 0;
#X connect 30 2 37 0;
#X connect 32 0 33 0;
#X connect 32 1 36 0;
#X connect 33 0 31 0;
#X connect 34 0 31 0;
#X connect 35 0 36 1;
#X connect 36 0 34 0;
#X connect 37 0 32 0;
#X connect 38 0 4 0;
#X connect 39 0 7 0;
#X restore 1361 229 pd env;
#X obj 1441 359 -~;
#X obj 1440 337 sig~ 1;
#X obj 1409 374 *~;
#N canvas 539 98 596 517 env 0;
#X obj 162 -121 >;
#X obj 273 70 r \$0-r;
#X obj 108 34 r \$0-d;
#X obj 89 12 r \$0-a;
#X obj 85 151 vline~;
#X obj 74 50 f;
#X obj 244 87 f;
#X obj 269 161 line~;
#X obj 162 -26 sel 1 0;
#X msg 157 241 0;
#X obj 84 250 *~;
#X obj 125 258 sig~;
#X msg 125 225 1;
#X obj 163 -3 t b b;
#X obj 256 289 *~;
#X obj 188 220 samphold~;
#X msg 100 129 0 \$1;
#X obj 84 305 +~;
#X obj 244 112 t f f;
#X obj 244 4 t b b;
#X obj 84 194 tabread4~ \$0-ad-shape;
#X obj 270 215 tabread4~ \$0-r-shape;
#X obj 84 172 +~ 1;
#X obj 270 187 +~ 1;
#X obj 472 350 outlet~;
#X obj 460 -181 inlet;
#X obj 85 72 pack;
#X obj 473 323 *~;
#X obj 487 270 sig~;
#X obj 479 -17 sel 0;
#X obj 460 -161 t f f f;
#X obj 591 -50 switch~;
#X obj 527 -123 sel 1 0;
#X msg 527 -91 1;
#X msg 591 -73 0;
#X obj 606 -120 r \$0-r;
#X obj 591 -94 del;
#X obj 527 -144 >;
#X msg 85 100 0 \, 1024 \$1 \, 2048 \$2 \$1;
#X msg 269 139 0 \, 1024 \$1;
#X connect 0 0 8 0;
#X connect 1 0 6 1;
#X connect 2 0 26 1;
#X connect 3 0 5 1;
#X connect 4 0 22 0;
#X connect 5 0 26 0;
#X connect 6 0 18 0;
#X connect 7 0 15 1;
#X connect 7 0 23 0;
#X connect 8 0 13 0;
#X connect 8 1 19 0;
#X connect 9 0 11 0;
#X connect 10 0 17 0;
#X connect 11 0 10 1;
#X connect 12 0 11 0;
#X connect 13 0 5 0;
#X connect 13 1 12 0;
#X connect 14 0 17 1;
#X connect 15 0 14 0;
#X connect 16 0 4 0;
#X connect 17 0 27 0;
#X connect 18 0 16 0;
#X connect 18 1 39 0;
#X connect 19 0 6 0;
#X connect 19 1 9 0;
#X connect 20 0 10 0;
#X connect 20 0 15 0;
#X connect 21 0 14 1;
#X connect 22 0 20 0;
#X connect 23 0 21 0;
#X connect 25 0 30 0;
#X connect 26 0 38 0;
#X connect 27 0 24 0;
#X connect 28 0 27 1;
#X connect 29 1 28 0;
#X connect 30 0 0 0;
#X connect 30 1 29 0;
#X connect 30 2 37 0;
#X connect 32 0 33 0;
#X connect 32 1 36 0;
#X connect 33 0 31 0;
#X connect 34 0 31 0;
#X connect 35 0 36 1;
#X connect 36 0 34 0;
#X connect 37 0 32 0;
#X connect 38 0 4 0;
#X connect 39 0 7 0;
#X restore 1410 229 pd env;
#X obj 1456 315 *~;
#X obj 1559 349 -~;
#X obj 1558 327 sig~ 1;
#X obj 1527 364 *~;
#X obj 1573 306 *~;
#X obj 1511 420 *~;
#X obj 1496 464 -~;
#X obj 1495 442 sig~ 1;
#X obj 1464 480 *~;
#X obj 1681 535 *~;
#X obj 1666 579 -~;
#X obj 1665 557 sig~ 1;
#X obj 1634 595 *~;
#N canvas 539 98 596 517 env 0;
#X obj 162 -121 >;
#X obj 273 70 r \$0-r;
#X obj 108 34 r \$0-d;
#X obj 89 12 r \$0-a;
#X obj 85 151 vline~;
#X obj 74 50 f;
#X obj 244 87 f;
#X obj 269 161 line~;
#X obj 162 -26 sel 1 0;
#X msg 157 241 0;
#X obj 84 250 *~;
#X obj 125 258 sig~;
#X msg 125 225 1;
#X obj 163 -3 t b b;
#X obj 256 289 *~;
#X obj 188 220 samphold~;
#X msg 100 129 0 \$1;
#X obj 84 305 +~;
#X obj 244 112 t f f;
#X obj 244 4 t b b;
#X obj 84 194 tabread4~ \$0-ad-shape;
#X obj 270 215 tabread4~ \$0-r-shape;
#X obj 84 172 +~ 1;
#X obj 270 187 +~ 1;
#X obj 472 350 outlet~;
#X obj 460 -181 inlet;
#X obj 85 72 pack;
#X obj 473 323 *~;
#X obj 487 270 sig~;
#X obj 479 -17 sel 0;
#X obj 460 -161 t f f f;
#X obj 591 -50 switch~;
#X obj 527 -123 sel 1 0;
#X msg 527 -91 1;
#X msg 591 -73 0;
#X obj 606 -120 r \$0-r;
#X obj 591 -94 del;
#X obj 527 -144 >;
#X msg 85 100 0 \, 1024 \$1 \, 2048 \$2 \$1;
#X msg 269 139 0 \, 1024 \$1;
#X connect 0 0 8 0;
#X connect 1 0 6 1;
#X connect 2 0 26 1;
#X connect 3 0 5 1;
#X connect 4 0 22 0;
#X connect 5 0 26 0;
#X connect 6 0 18 0;
#X connect 7 0 15 1;
#X connect 7 0 23 0;
#X connect 8 0 13 0;
#X connect 8 1 19 0;
#X connect 9 0 11 0;
#X connect 10 0 17 0;
#X connect 11 0 10 1;
#X connect 12 0 11 0;
#X connect 13 0 5 0;
#X connect 13 1 12 0;
#X connect 14 0 17 1;
#X connect 15 0 14 0;
#X connect 16 0 4 0;
#X connect 17 0 27 0;
#X connect 18 0 16 0;
#X connect 18 1 39 0;
#X connect 19 0 6 0;
#X connect 19 1 9 0;
#X connect 20 0 10 0;
#X connect 20 0 15 0;
#X connect 21 0 14 1;
#X connect 22 0 20 0;
#X connect 23 0 21 0;
#X connect 25 0 30 0;
#X connect 26 0 38 0;
#X connect 27 0 24 0;
#X connect 28 0 27 1;
#X connect 29 1 28 0;
#X connect 30 0 0 0;
#X connect 30 1 29 0;
#X connect 30 2 37 0;
#X connect 32 0 33 0;
#X connect 32 1 36 0;
#X connect 33 0 31 0;
#X connect 34 0 31 0;
#X connect 35 0 36 1;
#X connect 36 0 34 0;
#X connect 37 0 32 0;
#X connect 38 0 4 0;
#X connect 39 0 7 0;
#X restore 1472 229 pd env;
#N canvas 539 98 596 517 env 0;
#X obj 162 -121 >;
#X obj 273 70 r \$0-r;
#X obj 108 34 r \$0-d;
#X obj 89 12 r \$0-a;
#X obj 85 151 vline~;
#X obj 74 50 f;
#X obj 244 87 f;
#X obj 269 161 line~;
#X obj 162 -26 sel 1 0;
#X msg 157 241 0;
#X obj 84 250 *~;
#X obj 125 258 sig~;
#X msg 125 225 1;
#X obj 163 -3 t b b;
#X obj 256 289 *~;
#X obj 188 220 samphold~;
#X msg 100 129 0 \$1;
#X obj 84 305 +~;
#X obj 244 112 t f f;
#X obj 244 4 t b b;
#X obj 84 194 tabread4~ \$0-ad-shape;
#X obj 270 215 tabread4~ \$0-r-shape;
#X obj 84 172 +~ 1;
#X obj 270 187 +~ 1;
#X obj 472 350 outlet~;
#X obj 460 -181 inlet;
#X obj 85 72 pack;
#X obj 473 323 *~;
#X obj 487 270 sig~;
#X obj 479 -17 sel 0;
#X obj 460 -161 t f f f;
#X obj 591 -50 switch~;
#X obj 527 -123 sel 1 0;
#X msg 527 -91 1;
#X msg 591 -73 0;
#X obj 606 -120 r \$0-r;
#X obj 591 -94 del;
#X obj 527 -144 >;
#X msg 85 100 0 \, 1024 \$1 \, 2048 \$2 \$1;
#X msg 269 139 0 \, 1024 \$1;
#X connect 0 0 8 0;
#X connect 1 0 6 1;
#X connect 2 0 26 1;
#X connect 3 0 5 1;
#X connect 4 0 22 0;
#X connect 5 0 26 0;
#X connect 6 0 18 0;
#X connect 7 0 15 1;
#X connect 7 0 23 0;
#X connect 8 0 13 0;
#X connect 8 1 19 0;
#X connect 9 0 11 0;
#X connect 10 0 17 0;
#X connect 11 0 10 1;
#X connect 12 0 11 0;
#X connect 13 0 5 0;
#X connect 13 1 12 0;
#X connect 14 0 17 1;
#X connect 15 0 14 0;
#X connect 16 0 4 0;
#X connect 17 0 27 0;
#X connect 18 0 16 0;
#X connect 18 1 39 0;
#X connect 19 0 6 0;
#X connect 19 1 9 0;
#X connect 20 0 10 0;
#X connect 20 0 15 0;
#X connect 21 0 14 1;
#X connect 22 0 20 0;
#X connect 23 0 21 0;
#X connect 25 0 30 0;
#X connect 26 0 38 0;
#X connect 27 0 24 0;
#X connect 28 0 27 1;
#X connect 29 1 28 0;
#X connect 30 0 0 0;
#X connect 30 1 29 0;
#X connect 30 2 37 0;
#X connect 32 0 33 0;
#X connect 32 1 36 0;
#X connect 33 0 31 0;
#X connect 34 0 31 0;
#X connect 35 0 36 1;
#X connect 36 0 34 0;
#X connect 37 0 32 0;
#X connect 38 0 4 0;
#X connect 39 0 7 0;
#X restore 1528 228 pd env;
#N canvas 539 98 596 517 env 0;
#X obj 162 -121 >;
#X obj 273 70 r \$0-r;
#X obj 108 34 r \$0-d;
#X obj 89 12 r \$0-a;
#X obj 85 151 vline~;
#X obj 74 50 f;
#X obj 244 87 f;
#X obj 269 161 line~;
#X obj 162 -26 sel 1 0;
#X msg 157 241 0;
#X obj 84 250 *~;
#X obj 125 258 sig~;
#X msg 125 225 1;
#X obj 163 -3 t b b;
#X obj 256 289 *~;
#X obj 188 220 samphold~;
#X msg 100 129 0 \$1;
#X obj 84 305 +~;
#X obj 244 112 t f f;
#X obj 244 4 t b b;
#X obj 84 194 tabread4~ \$0-ad-shape;
#X obj 270 215 tabread4~ \$0-r-shape;
#X obj 84 172 +~ 1;
#X obj 270 187 +~ 1;
#X obj 472 350 outlet~;
#X obj 460 -181 inlet;
#X obj 85 72 pack;
#X obj 473 323 *~;
#X obj 487 270 sig~;
#X obj 479 -17 sel 0;
#X obj 460 -161 t f f f;
#X obj 591 -50 switch~;
#X obj 527 -123 sel 1 0;
#X msg 527 -91 1;
#X msg 591 -73 0;
#X obj 606 -120 r \$0-r;
#X obj 591 -94 del;
#X obj 527 -144 >;
#X msg 85 100 0 \, 1024 \$1 \, 2048 \$2 \$1;
#X msg 269 139 0 \, 1024 \$1;
#X connect 0 0 8 0;
#X connect 1 0 6 1;
#X connect 2 0 26 1;
#X connect 3 0 5 1;
#X connect 4 0 22 0;
#X connect 5 0 26 0;
#X connect 6 0 18 0;
#X connect 7 0 15 1;
#X connect 7 0 23 0;
#X connect 8 0 13 0;
#X connect 8 1 19 0;
#X connect 9 0 11 0;
#X connect 10 0 17 0;
#X connect 11 0 10 1;
#X connect 12 0 11 0;
#X connect 13 0 5 0;
#X connect 13 1 12 0;
#X connect 14 0 17 1;
#X connect 15 0 14 0;
#X connect 16 0 4 0;
#X connect 17 0 27 0;
#X connect 18 0 16 0;
#X connect 18 1 39 0;
#X connect 19 0 6 0;
#X connect 19 1 9 0;
#X connect 20 0 10 0;
#X connect 20 0 15 0;
#X connect 21 0 14 1;
#X connect 22 0 20 0;
#X connect 23 0 21 0;
#X connect 25 0 30 0;
#X connect 26 0 38 0;
#X connect 27 0 24 0;
#X connect 28 0 27 1;
#X connect 29 1 28 0;
#X connect 30 0 0 0;
#X connect 30 1 29 0;
#X connect 30 2 37 0;
#X connect 32 0 33 0;
#X connect 32 1 36 0;
#X connect 33 0 31 0;
#X connect 34 0 31 0;
#X connect 35 0 36 1;
#X connect 36 0 34 0;
#X connect 37 0 32 0;
#X connect 38 0 4 0;
#X connect 39 0 7 0;
#X restore 1588 228 pd env;
#X obj 1673 358 -~;
#X obj 1672 336 sig~ 1;
#X obj 1641 373 *~;
#N canvas 539 98 596 517 env 0;
#X obj 162 -121 >;
#X obj 273 70 r \$0-r;
#X obj 108 34 r \$0-d;
#X obj 89 12 r \$0-a;
#X obj 85 151 vline~;
#X obj 74 50 f;
#X obj 244 87 f;
#X obj 269 161 line~;
#X obj 162 -26 sel 1 0;
#X msg 157 241 0;
#X obj 84 250 *~;
#X obj 125 258 sig~;
#X msg 125 225 1;
#X obj 163 -3 t b b;
#X obj 256 289 *~;
#X obj 188 220 samphold~;
#X msg 100 129 0 \$1;
#X obj 84 305 +~;
#X obj 244 112 t f f;
#X obj 244 4 t b b;
#X obj 84 194 tabread4~ \$0-ad-shape;
#X obj 270 215 tabread4~ \$0-r-shape;
#X obj 84 172 +~ 1;
#X obj 270 187 +~ 1;
#X obj 472 350 outlet~;
#X obj 460 -181 inlet;
#X obj 85 72 pack;
#X obj 473 323 *~;
#X obj 487 270 sig~;
#X obj 479 -17 sel 0;
#X obj 460 -161 t f f f;
#X obj 591 -50 switch~;
#X obj 527 -123 sel 1 0;
#X msg 527 -91 1;
#X msg 591 -73 0;
#X obj 606 -120 r \$0-r;
#X obj 591 -94 del;
#X obj 527 -144 >;
#X msg 85 100 0 \, 1024 \$1 \, 2048 \$2 \$1;
#X msg 269 139 0 \, 1024 \$1;
#X connect 0 0 8 0;
#X connect 1 0 6 1;
#X connect 2 0 26 1;
#X connect 3 0 5 1;
#X connect 4 0 22 0;
#X connect 5 0 26 0;
#X connect 6 0 18 0;
#X connect 7 0 15 1;
#X connect 7 0 23 0;
#X connect 8 0 13 0;
#X connect 8 1 19 0;
#X connect 9 0 11 0;
#X connect 10 0 17 0;
#X connect 11 0 10 1;
#X connect 12 0 11 0;
#X connect 13 0 5 0;
#X connect 13 1 12 0;
#X connect 14 0 17 1;
#X connect 15 0 14 0;
#X connect 16 0 4 0;
#X connect 17 0 27 0;
#X connect 18 0 16 0;
#X connect 18 1 39 0;
#X connect 19 0 6 0;
#X connect 19 1 9 0;
#X connect 20 0 10 0;
#X connect 20 0 15 0;
#X connect 21 0 14 1;
#X connect 22 0 20 0;
#X connect 23 0 21 0;
#X connect 25 0 30 0;
#X connect 26 0 38 0;
#X connect 27 0 24 0;
#X connect 28 0 27 1;
#X connect 29 1 28 0;
#X connect 30 0 0 0;
#X connect 30 1 29 0;
#X connect 30 2 37 0;
#X connect 32 0 33 0;
#X connect 32 1 36 0;
#X connect 33 0 31 0;
#X connect 34 0 31 0;
#X connect 35 0 36 1;
#X connect 36 0 34 0;
#X connect 37 0 32 0;
#X connect 38 0 4 0;
#X connect 39 0 7 0;
#X restore 1642 228 pd env;
#X obj 1688 314 *~;
#X obj 1791 348 -~;
#X obj 1790 326 sig~ 1;
#X obj 1759 363 *~;
#X obj 1805 305 *~;
#X obj 1743 419 *~;
#X obj 1728 463 -~;
#X obj 1727 441 sig~ 1;
#X obj 1696 479 *~;
#N canvas 539 98 596 517 env 0;
#X obj 162 -121 >;
#X obj 273 70 r \$0-r;
#X obj 108 34 r \$0-d;
#X obj 89 12 r \$0-a;
#X obj 85 151 vline~;
#X obj 74 50 f;
#X obj 244 87 f;
#X obj 269 161 line~;
#X obj 162 -26 sel 1 0;
#X msg 157 241 0;
#X obj 84 250 *~;
#X obj 125 258 sig~;
#X msg 125 225 1;
#X obj 163 -3 t b b;
#X obj 256 289 *~;
#X obj 188 220 samphold~;
#X msg 100 129 0 \$1;
#X obj 84 305 +~;
#X obj 244 112 t f f;
#X obj 244 4 t b b;
#X obj 84 194 tabread4~ \$0-ad-shape;
#X obj 270 215 tabread4~ \$0-r-shape;
#X obj 84 172 +~ 1;
#X obj 270 187 +~ 1;
#X obj 472 350 outlet~;
#X obj 460 -181 inlet;
#X obj 85 72 pack;
#X obj 473 323 *~;
#X obj 487 270 sig~;
#X obj 479 -17 sel 0;
#X obj 460 -161 t f f f;
#X obj 591 -50 switch~;
#X obj 527 -123 sel 1 0;
#X msg 527 -91 1;
#X msg 591 -73 0;
#X obj 606 -120 r \$0-r;
#X obj 591 -94 del;
#X obj 527 -144 >;
#X msg 85 100 0 \, 1024 \$1 \, 2048 \$2 \$1;
#X msg 269 139 0 \, 1024 \$1;
#X connect 0 0 8 0;
#X connect 1 0 6 1;
#X connect 2 0 26 1;
#X connect 3 0 5 1;
#X connect 4 0 22 0;
#X connect 5 0 26 0;
#X connect 6 0 18 0;
#X connect 7 0 15 1;
#X connect 7 0 23 0;
#X connect 8 0 13 0;
#X connect 8 1 19 0;
#X connect 9 0 11 0;
#X connect 10 0 17 0;
#X connect 11 0 10 1;
#X connect 12 0 11 0;
#X connect 13 0 5 0;
#X connect 13 1 12 0;
#X connect 14 0 17 1;
#X connect 15 0 14 0;
#X connect 16 0 4 0;
#X connect 17 0 27 0;
#X connect 18 0 16 0;
#X connect 18 1 39 0;
#X connect 19 0 6 0;
#X connect 19 1 9 0;
#X connect 20 0 10 0;
#X connect 20 0 15 0;
#X connect 21 0 14 1;
#X connect 22 0 20 0;
#X connect 23 0 21 0;
#X connect 25 0 30 0;
#X connect 26 0 38 0;
#X connect 27 0 24 0;
#X connect 28 0 27 1;
#X connect 29 1 28 0;
#X connect 30 0 0 0;
#X connect 30 1 29 0;
#X connect 30 2 37 0;
#X connect 32 0 33 0;
#X connect 32 1 36 0;
#X connect 33 0 31 0;
#X connect 34 0 31 0;
#X connect 35 0 36 1;
#X connect 36 0 34 0;
#X connect 37 0 32 0;
#X connect 38 0 4 0;
#X connect 39 0 7 0;
#X restore 1704 228 pd env;
#N canvas 539 98 596 517 env 0;
#X obj 162 -121 >;
#X obj 273 70 r \$0-r;
#X obj 108 34 r \$0-d;
#X obj 89 12 r \$0-a;
#X obj 85 151 vline~;
#X obj 74 50 f;
#X obj 244 87 f;
#X obj 269 161 line~;
#X obj 162 -26 sel 1 0;
#X msg 157 241 0;
#X obj 84 250 *~;
#X obj 125 258 sig~;
#X msg 125 225 1;
#X obj 163 -3 t b b;
#X obj 256 289 *~;
#X obj 188 220 samphold~;
#X msg 100 129 0 \$1;
#X obj 84 305 +~;
#X obj 244 112 t f f;
#X obj 244 4 t b b;
#X obj 84 194 tabread4~ \$0-ad-shape;
#X obj 270 215 tabread4~ \$0-r-shape;
#X obj 84 172 +~ 1;
#X obj 270 187 +~ 1;
#X obj 472 350 outlet~;
#X obj 460 -181 inlet;
#X obj 85 72 pack;
#X obj 473 323 *~;
#X obj 487 270 sig~;
#X obj 479 -17 sel 0;
#X obj 460 -161 t f f f;
#X obj 591 -50 switch~;
#X obj 527 -123 sel 1 0;
#X msg 527 -91 1;
#X msg 591 -73 0;
#X obj 606 -120 r \$0-r;
#X obj 591 -94 del;
#X obj 527 -144 >;
#X msg 85 100 0 \, 1024 \$1 \, 2048 \$2 \$1;
#X msg 269 139 0 \, 1024 \$1;
#X connect 0 0 8 0;
#X connect 1 0 6 1;
#X connect 2 0 26 1;
#X connect 3 0 5 1;
#X connect 4 0 22 0;
#X connect 5 0 26 0;
#X connect 6 0 18 0;
#X connect 7 0 15 1;
#X connect 7 0 23 0;
#X connect 8 0 13 0;
#X connect 8 1 19 0;
#X connect 9 0 11 0;
#X connect 10 0 17 0;
#X connect 11 0 10 1;
#X connect 12 0 11 0;
#X connect 13 0 5 0;
#X connect 13 1 12 0;
#X connect 14 0 17 1;
#X connect 15 0 14 0;
#X connect 16 0 4 0;
#X connect 17 0 27 0;
#X connect 18 0 16 0;
#X connect 18 1 39 0;
#X connect 19 0 6 0;
#X connect 19 1 9 0;
#X connect 20 0 10 0;
#X connect 20 0 15 0;
#X connect 21 0 14 1;
#X connect 22 0 20 0;
#X connect 23 0 21 0;
#X connect 25 0 30 0;
#X connect 26 0 38 0;
#X connect 27 0 24 0;
#X connect 28 0 27 1;
#X connect 29 1 28 0;
#X connect 30 0 0 0;
#X connect 30 1 29 0;
#X connect 30 2 37 0;
#X connect 32 0 33 0;
#X connect 32 1 36 0;
#X connect 33 0 31 0;
#X connect 34 0 31 0;
#X connect 35 0 36 1;
#X connect 36 0 34 0;
#X connect 37 0 32 0;
#X connect 38 0 4 0;
#X connect 39 0 7 0;
#X restore 1760 227 pd env;
#N canvas 539 98 596 517 env 0;
#X obj 162 -121 >;
#X obj 273 70 r \$0-r;
#X obj 108 34 r \$0-d;
#X obj 89 12 r \$0-a;
#X obj 85 151 vline~;
#X obj 74 50 f;
#X obj 244 87 f;
#X obj 269 161 line~;
#X obj 162 -26 sel 1 0;
#X msg 157 241 0;
#X obj 84 250 *~;
#X obj 125 258 sig~;
#X msg 125 225 1;
#X obj 163 -3 t b b;
#X obj 256 289 *~;
#X obj 188 220 samphold~;
#X msg 100 129 0 \$1;
#X obj 84 305 +~;
#X obj 244 112 t f f;
#X obj 244 4 t b b;
#X obj 84 194 tabread4~ \$0-ad-shape;
#X obj 270 215 tabread4~ \$0-r-shape;
#X obj 84 172 +~ 1;
#X obj 270 187 +~ 1;
#X obj 472 350 outlet~;
#X obj 460 -181 inlet;
#X obj 85 72 pack;
#X obj 473 323 *~;
#X obj 487 270 sig~;
#X obj 479 -17 sel 0;
#X obj 460 -161 t f f f;
#X obj 591 -50 switch~;
#X obj 527 -123 sel 1 0;
#X msg 527 -91 1;
#X msg 591 -73 0;
#X obj 606 -120 r \$0-r;
#X obj 591 -94 del;
#X obj 527 -144 >;
#X msg 85 100 0 \, 1024 \$1 \, 2048 \$2 \$1;
#X msg 269 139 0 \, 1024 \$1;
#X connect 0 0 8 0;
#X connect 1 0 6 1;
#X connect 2 0 26 1;
#X connect 3 0 5 1;
#X connect 4 0 22 0;
#X connect 5 0 26 0;
#X connect 6 0 18 0;
#X connect 7 0 15 1;
#X connect 7 0 23 0;
#X connect 8 0 13 0;
#X connect 8 1 19 0;
#X connect 9 0 11 0;
#X connect 10 0 17 0;
#X connect 11 0 10 1;
#X connect 12 0 11 0;
#X connect 13 0 5 0;
#X connect 13 1 12 0;
#X connect 14 0 17 1;
#X connect 15 0 14 0;
#X connect 16 0 4 0;
#X connect 17 0 27 0;
#X connect 18 0 16 0;
#X connect 18 1 39 0;
#X connect 19 0 6 0;
#X connect 19 1 9 0;
#X connect 20 0 10 0;
#X connect 20 0 15 0;
#X connect 21 0 14 1;
#X connect 22 0 20 0;
#X connect 23 0 21 0;
#X connect 25 0 30 0;
#X connect 26 0 38 0;
#X connect 27 0 24 0;
#X connect 28 0 27 1;
#X connect 29 1 28 0;
#X connect 30 0 0 0;
#X connect 30 1 29 0;
#X connect 30 2 37 0;
#X connect 32 0 33 0;
#X connect 32 1 36 0;
#X connect 33 0 31 0;
#X connect 34 0 31 0;
#X connect 35 0 36 1;
#X connect 36 0 34 0;
#X connect 37 0 32 0;
#X connect 38 0 4 0;
#X connect 39 0 7 0;
#X restore 1820 227 pd env;
#X connect 0 0 24 0;
#X connect 1 0 25 0;
#X connect 2 0 4 1;
#X connect 3 0 2 0;
#X connect 4 0 11 0;
#X connect 4 0 14 0;
#X connect 5 0 4 0;
#X connect 5 0 6 0;
#X connect 6 0 2 1;
#X connect 7 0 9 1;
#X connect 8 0 7 0;
#X connect 9 0 11 1;
#X connect 9 0 14 0;
#X connect 10 0 7 1;
#X connect 11 0 12 1;
#X connect 12 0 14 1;
#X connect 13 0 12 0;
#X connect 14 0 15 0;
#X connect 14 0 18 0;
#X connect 15 0 16 1;
#X connect 16 0 18 1;
#X connect 17 0 16 0;
#X connect 18 0 19 0;
#X connect 18 0 22 0;
#X connect 19 0 20 1;
#X connect 20 0 22 1;
#X connect 21 0 20 0;
#X connect 22 0 26 0;
#X connect 22 0 29 0;
#X connect 23 0 1 0;
#X connect 23 2 1 1;
#X connect 24 0 31 0;
#X connect 24 1 23 1;
#X connect 25 0 5 0;
#X connect 25 1 32 0;
#X connect 25 2 33 0;
#X connect 25 3 34 0;
#X connect 25 4 38 0;
#X connect 25 5 48 0;
#X connect 25 6 49 0;
#X connect 25 7 50 0;
#X connect 25 8 54 0;
#X connect 25 9 68 0;
#X connect 25 10 69 0;
#X connect 25 11 70 0;
#X connect 25 12 74 0;
#X connect 25 13 84 0;
#X connect 25 14 85 0;
#X connect 25 15 86 0;
#X connect 25 16 90 0;
#X connect 25 17 108 0;
#X connect 25 18 109 0;
#X connect 25 19 110 0;
#X connect 25 20 114 0;
#X connect 25 21 124 0;
#X connect 25 22 125 0;
#X connect 25 23 126 0;
#X connect 25 24 130 0;
#X connect 25 25 144 0;
#X connect 25 26 145 0;
#X connect 25 27 146 0;
#X connect 25 28 150 0;
#X connect 25 29 160 0;
#X connect 25 30 161 0;
#X connect 25 31 162 0;
#X connect 26 0 27 1;
#X connect 27 0 29 1;
#X connect 28 0 27 0;
#X connect 29 0 30 0;
#X connect 31 0 23 0;
#X connect 32 0 6 1;
#X connect 32 0 4 0;
#X connect 33 0 9 0;
#X connect 33 0 10 0;
#X connect 34 0 10 1;
#X connect 34 0 9 0;
#X connect 35 0 37 1;
#X connect 36 0 35 0;
#X connect 37 0 44 0;
#X connect 37 0 47 0;
#X connect 38 0 37 0;
#X connect 38 0 39 0;
#X connect 39 0 35 1;
#X connect 40 0 42 1;
#X connect 41 0 40 0;
#X connect 42 0 44 1;
#X connect 42 0 47 0;
#X connect 43 0 40 1;
#X connect 44 0 45 1;
#X connect 45 0 47 1;
#X connect 46 0 45 0;
#X connect 47 0 15 1;
#X connect 47 0 18 0;
#X connect 48 0 39 1;
#X connect 48 0 37 0;
#X connect 49 0 42 0;
#X connect 49 0 43 0;
#X connect 50 0 43 1;
#X connect 50 0 42 0;
#X connect 51 0 53 1;
#X connect 52 0 51 0;
#X connect 53 0 60 0;
#X connect 53 0 63 0;
#X connect 54 0 53 0;
#X connect 54 0 55 0;
#X connect 55 0 51 1;
#X connect 56 0 58 1;
#X connect 57 0 56 0;
#X connect 58 0 60 1;
#X connect 58 0 63 0;
#X connect 59 0 56 1;
#X connect 60 0 61 1;
#X connect 61 0 63 1;
#X connect 62 0 61 0;
#X connect 63 0 64 0;
#X connect 63 0 67 0;
#X connect 64 0 65 1;
#X connect 65 0 67 1;
#X connect 66 0 65 0;
#X connect 67 0 19 1;
#X connect 67 0 22 0;
#X connect 68 0 55 1;
#X connect 68 0 53 0;
#X connect 69 0 58 0;
#X connect 69 0 59 0;
#X connect 70 0 59 1;
#X connect 70 0 58 0;
#X connect 71 0 73 1;
#X connect 72 0 71 0;
#X connect 73 0 80 0;
#X connect 73 0 83 0;
#X connect 74 0 73 0;
#X connect 74 0 75 0;
#X connect 75 0 71 1;
#X connect 76 0 78 1;
#X connect 77 0 76 0;
#X connect 78 0 80 1;
#X connect 78 0 83 0;
#X connect 79 0 76 1;
#X connect 80 0 81 1;
#X connect 81 0 83 1;
#X connect 82 0 81 0;
#X connect 83 0 64 1;
#X connect 83 0 67 0;
#X connect 84 0 75 1;
#X connect 84 0 73 0;
#X connect 85 0 78 0;
#X connect 85 0 79 0;
#X connect 86 0 79 1;
#X connect 86 0 78 0;
#X connect 87 0 89 1;
#X connect 88 0 87 0;
#X connect 89 0 96 0;
#X connect 89 0 99 0;
#X connect 90 0 89 0;
#X connect 90 0 91 0;
#X connect 91 0 87 1;
#X connect 92 0 94 1;
#X connect 93 0 92 0;
#X connect 94 0 96 1;
#X connect 94 0 99 0;
#X connect 95 0 92 1;
#X connect 96 0 97 1;
#X connect 97 0 99 1;
#X connect 98 0 97 0;
#X connect 99 0 100 0;
#X connect 99 0 103 0;
#X connect 100 0 101 1;
#X connect 101 0 103 1;
#X connect 102 0 101 0;
#X connect 103 0 104 0;
#X connect 103 0 107 0;
#X connect 104 0 105 1;
#X connect 105 0 107 1;
#X connect 106 0 105 0;
#X connect 107 0 26 1;
#X connect 107 0 29 0;
#X connect 108 0 91 1;
#X connect 108 0 89 0;
#X connect 109 0 94 0;
#X connect 109 0 95 0;
#X connect 110 0 95 1;
#X connect 110 0 94 0;
#X connect 111 0 113 1;
#X connect 112 0 111 0;
#X connect 113 0 120 0;
#X connect 113 0 123 0;
#X connect 114 0 113 0;
#X connect 114 0 115 0;
#X connect 115 0 111 1;
#X connect 116 0 118 1;
#X connect 117 0 116 0;
#X connect 118 0 120 1;
#X connect 118 0 123 0;
#X connect 119 0 116 1;
#X connect 120 0 121 1;
#X connect 121 0 123 1;
#X connect 122 0 121 0;
#X connect 123 0 100 1;
#X connect 123 0 103 0;
#X connect 124 0 115 1;
#X connect 124 0 113 0;
#X connect 125 0 118 0;
#X connect 125 0 119 0;
#X connect 126 0 119 1;
#X connect 126 0 118 0;
#X connect 127 0 129 1;
#X connect 128 0 127 0;
#X connect 129 0 136 0;
#X connect 129 0 139 0;
#X connect 130 0 129 0;
#X connect 130 0 131 0;
#X connect 131 0 127 1;
#X connect 132 0 134 1;
#X connect 133 0 132 0;
#X connect 134 0 136 1;
#X connect 134 0 139 0;
#X connect 135 0 132 1;
#X connect 136 0 137 1;
#X connect 137 0 139 1;
#X connect 138 0 137 0;
#X connect 139 0 140 0;
#X connect 139 0 143 0;
#X connect 140 0 141 1;
#X connect 141 0 143 1;
#X connect 142 0 141 0;
#X connect 143 0 104 1;
#X connect 143 0 107 0;
#X connect 144 0 131 1;
#X connect 144 0 129 0;
#X connect 145 0 134 0;
#X connect 145 0 135 0;
#X connect 146 0 135 1;
#X connect 146 0 134 0;
#X connect 147 0 149 1;
#X connect 148 0 147 0;
#X connect 149 0 156 0;
#X connect 149 0 159 0;
#X connect 150 0 149 0;
#X connect 150 0 151 0;
#X connect 151 0 147 1;
#X connect 152 0 154 1;
#X connect 153 0 152 0;
#X connect 154 0 156 1;
#X connect 154 0 159 0;
#X connect 155 0 152 1;
#X connect 156 0 157 1;
#X connect 157 0 159 1;
#X connect 158 0 157 0;
#X connect 159 0 140 1;
#X connect 159 0 143 0;
#X connect 160 0 151 1;
#X connect 160 0 149 0;
#X connect 161 0 154 0;
#X connect 161 0 155 0;
#X connect 162 0 155 1;
#X connect 162 0 154 0;
#X restore 126 184 pd adsrirrsinn;
#N canvas 595 66 450 455 curves 0;
#X obj 18 171 *;
#X obj 104 22 r \$0-s;
#X obj 131 96 / 100;
#X obj 18 195 +;
#X msg 129 133 1 \$1;
#X obj 129 154 -;
#X obj 21 53 f;
#N canvas 598 39 566 616 kurve 0;
#X obj 432 846 outlet pos;
#X obj 299 448 until;
#X obj 360 473 + 1;
#X obj 331 472 f 0;
#X obj 327 415 t f b f;
#X msg 346 448 0;
#X obj 331 498 t f f;
#X obj 331 614 pow;
#X obj 430 501 + 1;
#X obj 164 301 moses 0;
#X obj 190 497 - 1;
#X obj 190 518 * -1;
#X obj 328 369 t b f;
#X obj 59 438 until;
#X obj 120 463 + 1;
#X obj 91 462 f 0;
#X obj 87 405 t f b f;
#X msg 106 438 0;
#X obj 91 488 t f f;
#X obj 91 590 pow;
#X obj 88 359 t b f;
#X obj 91 559 -;
#X msg 91 536 1 \$1;
#X obj 91 613 * -1;
#X obj 91 635 + 1;
#X obj 164 268 inlet;
#X msg 88 379 1024;
#X msg 328 392 1024;
#X obj 91 514 / 1023;
#X obj 331 560 / 1023;
#X obj 91 849 outlet;
#X connect 1 0 3 0;
#X connect 2 0 3 1;
#X connect 3 0 2 0;
#X connect 3 0 6 0;
#X connect 4 0 1 0;
#X connect 4 1 5 0;
#X connect 5 0 3 1;
#X connect 6 0 29 0;
#X connect 6 1 0 0;
#X connect 7 0 30 0;
#X connect 8 0 7 1;
#X connect 9 0 20 0;
#X connect 9 1 12 0;
#X connect 10 0 11 0;
#X connect 11 0 19 1;
#X connect 12 0 27 0;
#X connect 12 1 8 0;
#X connect 13 0 15 0;
#X connect 14 0 15 1;
#X connect 15 0 14 0;
#X connect 15 0 18 0;
#X connect 16 0 13 0;
#X connect 16 1 17 0;
#X connect 17 0 15 1;
#X connect 18 0 28 0;
#X connect 18 1 0 0;
#X connect 19 0 23 0;
#X connect 20 0 26 0;
#X connect 20 1 10 0;
#X connect 21 0 19 0;
#X connect 22 0 21 0;
#X connect 23 0 24 0;
#X connect 24 0 30 0;
#X connect 25 0 9 0;
#X connect 26 0 16 0;
#X connect 27 0 4 0;
#X connect 28 0 22 0;
#X connect 29 0 7 0;
#X restore -123 153 pd kurve;
#N canvas 598 39 566 616 kurve 0;
#X obj 432 846 outlet pos;
#X obj 299 448 until;
#X obj 360 473 + 1;
#X obj 331 472 f 0;
#X obj 327 415 t f b f;
#X msg 346 448 0;
#X obj 331 498 t f f;
#X obj 331 614 pow;
#X obj 430 501 + 1;
#X obj 164 301 moses 0;
#X obj 190 497 - 1;
#X obj 190 518 * -1;
#X obj 328 369 t b f;
#X obj 59 438 until;
#X obj 120 463 + 1;
#X obj 91 462 f 0;
#X obj 87 405 t f b f;
#X msg 106 438 0;
#X obj 91 488 t f f;
#X obj 91 590 pow;
#X obj 88 359 t b f;
#X obj 92 560 -;
#X msg 92 537 1 \$1;
#X obj 91 613 * -1;
#X obj 91 635 + 1;
#X obj 164 269 inlet;
#X msg 88 380 1024;
#X msg 328 393 1024;
#X obj 91 515 / 1023;
#X obj 331 558 / 1023;
#X obj 91 849 outlet;
#X connect 1 0 3 0;
#X connect 2 0 3 1;
#X connect 3 0 2 0;
#X connect 3 0 6 0;
#X connect 4 0 1 0;
#X connect 4 1 5 0;
#X connect 5 0 3 1;
#X connect 6 0 29 0;
#X connect 6 1 0 0;
#X connect 7 0 30 0;
#X connect 8 0 7 1;
#X connect 9 0 20 0;
#X connect 9 1 12 0;
#X connect 10 0 11 0;
#X connect 11 0 19 1;
#X connect 12 0 27 0;
#X connect 12 1 8 0;
#X connect 13 0 15 0;
#X connect 14 0 15 1;
#X connect 15 0 14 0;
#X connect 15 0 18 0;
#X connect 16 0 13 0;
#X connect 16 1 17 0;
#X connect 17 0 15 1;
#X connect 18 0 28 0;
#X connect 18 1 0 0;
#X connect 19 0 23 0;
#X connect 20 0 26 0;
#X connect 20 1 10 0;
#X connect 21 0 19 0;
#X connect 22 0 21 0;
#X connect 23 0 24 0;
#X connect 24 0 30 0;
#X connect 25 0 9 0;
#X connect 26 0 16 0;
#X connect 27 0 4 0;
#X connect 28 0 22 0;
#X connect 29 0 7 0;
#X restore 20 105 pd kurve;
#X obj -52 269 tabwrite \$0-ad-shape;
#X obj 20 126 * -1;
#X obj 22 147 + 1;
#X obj 104 49 t b f;
#N canvas 598 39 566 616 kurve 0;
#X obj 432 846 outlet pos;
#X obj 299 448 until;
#X obj 360 473 + 1;
#X obj 331 472 f 0;
#X obj 327 415 t f b f;
#X msg 346 448 0;
#X obj 331 498 t f f;
#X obj 331 614 pow;
#X obj 430 501 + 1;
#X obj 164 301 moses 0;
#X obj 190 497 - 1;
#X obj 190 518 * -1;
#X obj 328 369 t b f;
#X obj 59 438 until;
#X obj 120 463 + 1;
#X obj 91 462 f 0;
#X obj 87 405 t f b f;
#X msg 106 438 0;
#X obj 91 488 t f f;
#X obj 91 590 pow;
#X obj 88 359 t b f;
#X obj 91 559 -;
#X msg 91 536 1 \$1;
#X obj 91 613 * -1;
#X obj 91 635 + 1;
#X obj 164 269 inlet;
#X msg 88 379 1024;
#X msg 328 392 1024;
#X obj 91 513 / 1023;
#X obj 331 560 / 1023;
#X obj 91 849 outlet;
#X connect 1 0 3 0;
#X connect 2 0 3 1;
#X connect 3 0 2 0;
#X connect 3 0 6 0;
#X connect 4 0 1 0;
#X connect 4 1 5 0;
#X connect 5 0 3 1;
#X connect 6 0 29 0;
#X connect 6 1 0 0;
#X connect 7 0 30 0;
#X connect 8 0 7 1;
#X connect 9 0 20 0;
#X connect 9 1 12 0;
#X connect 10 0 11 0;
#X connect 11 0 19 1;
#X connect 12 0 27 0;
#X connect 12 1 8 0;
#X connect 13 0 15 0;
#X connect 14 0 15 1;
#X connect 15 0 14 0;
#X connect 15 0 18 0;
#X connect 16 0 13 0;
#X connect 16 1 17 0;
#X connect 17 0 15 1;
#X connect 18 0 28 0;
#X connect 18 1 0 0;
#X connect 19 0 23 0;
#X connect 20 0 26 0;
#X connect 20 1 10 0;
#X connect 21 0 19 0;
#X connect 22 0 21 0;
#X connect 23 0 24 0;
#X connect 24 0 30 0;
#X connect 25 0 9 0;
#X connect 26 0 16 0;
#X connect 27 0 4 0;
#X connect 28 0 22 0;
#X connect 29 0 7 0;
#X restore 157 185 pd kurve;
#X obj 157 206 * -1;
#X obj 157 228 + 1;
#X obj 143 256 tabwrite \$0-r-shape;
#X obj -78 181 + 1;
#X obj 265 235 + 1;
#X msg 225 229 1;
#X msg 245 181 0;
#X obj 206 134 t f b b;
#X obj 206 29 / 100;
#X obj 206 49 * 3;
#X obj 20 6 / 100;
#X obj 20 26 * 3;
#X obj -123 31 / 100;
#X obj -123 51 * 3;
#X obj 8 219 f;
#X obj -35 88 t b b f;
#X obj -123 -21 r \$0-a-curve;
#X obj 20 -24 r \$0-d-curve;
#X obj 206 -1 r \$0-r-curve;
#X obj -123 9 * -1;
#X obj 65 184 + 1024;
#X msg 78 239 2048;
#X obj -23 311 table \$0-ad-shape 2049;
#X obj -23 332 table \$0-r-shape 1027;
#X connect 0 0 3 0;
#X connect 1 0 12 0;
#X connect 2 0 3 1;
#X connect 2 0 4 0;
#X connect 3 0 28 0;
#X connect 4 0 5 0;
#X connect 5 0 0 1;
#X connect 6 0 29 0;
#X connect 7 0 9 0;
#X connect 7 1 17 0;
#X connect 8 0 10 0;
#X connect 8 1 34 0;
#X connect 10 0 11 0;
#X connect 11 0 0 0;
#X connect 12 0 6 0;
#X connect 12 1 2 0;
#X connect 13 0 14 0;
#X connect 13 1 18 0;
#X connect 14 0 15 0;
#X connect 15 0 16 0;
#X connect 17 0 9 1;
#X connect 18 0 16 1;
#X connect 19 0 16 0;
#X connect 20 0 16 1;
#X connect 21 0 13 0;
#X connect 21 1 19 0;
#X connect 21 2 20 0;
#X connect 22 0 23 0;
#X connect 23 0 21 0;
#X connect 24 0 25 0;
#X connect 25 0 6 0;
#X connect 26 0 27 0;
#X connect 27 0 7 0;
#X connect 28 0 9 0;
#X connect 29 0 28 0;
#X connect 29 1 35 0;
#X connect 29 2 8 0;
#X connect 30 0 33 0;
#X connect 31 0 24 0;
#X connect 32 0 22 0;
#X connect 33 0 26 0;
#X connect 34 0 9 1;
#X connect 35 0 9 1;
#X restore 125 216 pd curves;
#N canvas 676 246 450 300 init 0;
#X obj 152 214 outlet;
#X obj 152 70 del 1;
#X obj 190 147 + 1;
#X obj 152 148 f;
#X obj 152 172 mod 2;
#X obj 152 123 until;
#X msg 152 97 65;
#X obj 152 2 loadbang;
#X msg 224 72 \; \$1-a \$2 \; \$1-d \$3 \; \$1-s \$4 \; \$1-r \$5 \;
\$1-a-curve \$6 \; \$1-d-curve \$7 \; \$1-r-curve \$8;
#X obj 224 46 list \$0 \$1 \$2 \$3 \$4 \$5 \$6 \$7;
#X connect 1 0 6 0;
#X connect 2 0 3 1;
#X connect 3 0 2 0;
#X connect 3 0 4 0;
#X connect 4 0 0 0;
#X connect 5 0 3 0;
#X connect 6 0 5 0;
#X connect 7 0 1 0;
#X connect 7 0 9 0;
#X connect 9 0 8 0;
#X restore 126 142 pd init;
#X obj 58 244 outlet~;
#X obj 312 113 inlet;
#X obj 401 212 s \$0-s;
#X obj 312 212 s \$0-a;
#X obj 357 212 s \$0-d;
#X obj 445 212 s \$0-r;
#X obj 93 111 inlet;
#X obj 312 160 route attack decay sustain release attack-curve decay-curve
release-curve;
#X obj 489 212 s \$0-a-curve;
#X obj 571 213 s \$0-d-curve;
#X obj 650 213 s \$0-r-curve;
#X text 81 14 Solipp's curved ADSR-envelope;
#X connect 0 0 3 0;
#X connect 2 0 0 0;
#X connect 4 0 10 0;
#X connect 9 0 0 0;
#X connect 10 0 6 0;
#X connect 10 1 7 0;
#X connect 10 2 5 0;
#X connect 10 3 8 0;
#X connect 10 4 11 0;
#X connect 10 5 12 0;
#X connect 10 6 13 0;
